<svg id="Layer_1" data-name="Layer 1" xmlns="http://www.w3.org/2000/svg" width="39" height="38.04" viewBox="0 0 39 38.04"><defs><style>.cls-1{fill:#6aa5d0;fill-rule:evenodd;}</style></defs><title>blue_github</title><path class="cls-1" d="M20,1a19.5,19.5,0,0,0-6.16,38A1,1,0,0,0,15.17,38c0-.46,0-1.69,0-3.32-5.42,1.18-6.57-2.61-6.57-2.61a5.16,5.16,0,0,0-2.17-2.85c-1.77-1.21.13-1.19,0.13-1.19a4.1,4.1,0,0,1,3,2,4.15,4.15,0,0,0,5.68,1.62,4.17,4.17,0,0,1,1.24-2.61c-4.33-.49-8.88-2.17-8.88-9.64a7.54,7.54,0,0,1,2-5.23,7,7,0,0,1,.19-5.16s1.64-.52,5.36,2a18.48,18.48,0,0,1,9.76,0c3.72-2.52,5.36-2,5.36-2a7,7,0,0,1,.19,5.16,7.52,7.52,0,0,1,2,5.23c0,7.49-4.56,9.14-8.9,9.62a4.65,4.65,0,0,1,1.32,3.61c0,2.61,0,4.71,0,5.35a1,1,0,0,0,1.34.94A19.5,19.5,0,0,0,20,1Z" transform="translate(-0.5 -0.98)"/></svg>