<svg id="Layer_1" data-name="Layer 1" xmlns="http://www.w3.org/2000/svg" width="30" height="82.27" viewBox="0 0 30 82.27"><defs><style>.cls-1{fill:#fff;}.cls-1,.cls-2{fill-rule:evenodd;}.cls-2{fill:#f8971e;}</style></defs><title>location_marker</title><path class="cls-1" d="M25.61,25.61L15,39.5,4.39,25.61A15,15,0,1,1,25.61,25.61ZM21.28,8.72a8.89,8.89,0,1,0,0,12.57A8.89,8.89,0,0,0,21.28,8.72Z"/><path class="cls-2" d="M25.61,68.37L15,82.27,4.39,68.37A15,15,0,1,1,25.61,68.37ZM21.28,51.48a8.89,8.89,0,1,0,0,12.57A8.89,8.89,0,0,0,21.28,51.48Z"/></svg>