<svg id="Layer_1" data-name="Layer 1" xmlns="http://www.w3.org/2000/svg" width="677.86" height="132.16" viewBox="0 0 677.86 132.16"><defs><style>.cls-1,.cls-12,.cls-14,.cls-15,.cls-17,.cls-18,.cls-19,.cls-20,.cls-21,.cls-22,.cls-5,.cls-6,.cls-9{fill:none;}.cls-1,.cls-13,.cls-15,.cls-16,.cls-3,.cls-8{stroke:#002b3f;}.cls-1,.cls-12,.cls-13,.cls-14,.cls-15,.cls-16,.cls-17,.cls-18,.cls-19,.cls-20,.cls-21,.cls-22,.cls-3,.cls-5,.cls-8,.cls-9{stroke-miterlimit:10;}.cls-1{stroke-width:2.52px;}.cls-16,.cls-2{fill:#002b3f;}.cls-3,.cls-4,.cls-7,.cls-8{fill:#aee0ee;}.cls-3{stroke-width:1.75px;}.cls-12,.cls-5{stroke:#aee0ee;}.cls-5{stroke-dasharray:3.96 2.97;}.cls-7{opacity:0.8;}.cls-8{stroke-width:0.7px;}.cls-9{stroke:#69a5d1;}.cls-10{fill:#69a5d1;}.cls-11{fill:#2182bf;}.cls-13,.cls-23{fill:#4191c4;}.cls-13,.cls-15{stroke-width:2px;}.cls-14,.cls-17,.cls-18,.cls-19,.cls-20,.cls-21,.cls-22{stroke:#4191c4;}.cls-14{stroke-width:1.05px;}.cls-17{stroke-width:0.5px;}.cls-18{stroke-width:0.4px;}.cls-19{stroke-width:0.51px;}.cls-20{stroke-width:0.46px;}.cls-21{stroke-width:0.63px;}.cls-22{stroke-width:0.57px;}</style></defs><title>service_icons</title><circle class="cls-1" cx="64.36" cy="66.08" r="63.11"/><path class="cls-2" d="M64.35,32.38a0.6,0.6,0,0,0,.58.62l2,0.08A0.53,0.53,0,0,0,67,33a5.91,5.91,0,0,0,1.17,2l-1,1.64a0.61,0.61,0,0,0,.19.84l2.19,1.38a0.61,0.61,0,0,0,.84-0.2L71.43,37a0.46,0.46,0,0,0,0-.1,6,6,0,0,0,2.34,0l0.9,1.7a0.61,0.61,0,0,0,.82.26l2.28-1.21A0.61,0.61,0,0,0,78,36.86l-0.92-1.75A0.49,0.49,0,0,0,77,35a6.1,6.1,0,0,0,.58-0.75A5.88,5.88,0,0,0,78.2,33l1.92,0.07a0.61,0.61,0,0,0,.63-0.59l0.09-2.58a0.6,0.6,0,0,0-.58-0.63l-2-.07a0.52,0.52,0,0,0-.11,0,5.87,5.87,0,0,0-1.17-2l1-1.64a0.61,0.61,0,0,0-.19-0.84l-2.19-1.38a0.61,0.61,0,0,0-.84.19l-1.05,1.68a0.46,0.46,0,0,0,0,.1,6,6,0,0,0-2.34,0l-0.9-1.7a0.6,0.6,0,0,0-.82-0.25l-2.29,1.21a0.6,0.6,0,0,0-.25.82l0.92,1.76a0.42,0.42,0,0,0,.08.07,5.84,5.84,0,0,0-.58.74A6,6,0,0,0,67,29.28l-1.92-.07a0.61,0.61,0,0,0-.63.59Zm5.86-2.74a2.83,2.83,0,1,1,.89,3.9A2.83,2.83,0,0,1,70.2,29.64Z"/><path class="cls-3" d="M69.67,65.69l0.62,0.72,1.56,1.82,0.62,0.71,2.7-1.68a15.25,15.25,0,0,0,1.74,1.34L76.27,72l0.89,0.31,2.26,0.79,0.89,0.31,1.48-2.77a14.21,14.21,0,0,0,2.21.3l1.13,3.19,0.93-.18,2.35-.45,0.93-.18-0.1-3a13.47,13.47,0,0,0,2.12-.89l2.52,2.15,0.72-.62,1.81-1.56,0.72-.62-1.61-2.58a14.28,14.28,0,0,0,1.39-1.84l3.25,0.61,0.31-.9,0.79-2.26,0.31-.89-2.73-1.46a14.57,14.57,0,0,0,.26-2.23L102.3,56l-0.17-.93-0.45-2.35-0.17-.92-3.16.1a14,14,0,0,0-.87-2l2.24-2.62-0.62-.72-1.56-1.81-0.62-.72-2.7,1.68a14.75,14.75,0,0,0-1.74-1.34L93.12,41l-0.9-.31L90,39.92l-0.89-.31L87.6,42.38a14.51,14.51,0,0,0-2.22-.31l-1.13-3.19-0.93.18L81,39.51,80,39.68l0.1,3a14.22,14.22,0,0,0-2.12.89L75.5,41.47l-0.72.62L73,43.64l-0.72.62,1.61,2.58a14.9,14.9,0,0,0-1.4,1.84l-3.25-.61-0.31.9-0.79,2.26-0.31.9,2.73,1.45a14.56,14.56,0,0,0-.26,2.23l-3.2,1.13,0.18,0.93,0.44,2.35,0.18,0.93L71,61a14.12,14.12,0,0,0,.87,2Zm8.39-16.91a10.18,10.18,0,1,1-1,14.27A10.12,10.12,0,0,1,78.05,48.78Z"/><circle class="cls-4" cx="84.7" cy="56.5" r="6.1" transform="translate(-17.11 56.82) rotate(-33.88)"/><path class="cls-2" d="M50.86,37a7.27,7.27,0,1,1-10.28,0A7.28,7.28,0,0,1,50.86,37Zm-9,9a5.45,5.45,0,1,0,0-7.71A5.46,5.46,0,0,0,41.85,46Z"/><path class="cls-4" d="M48.61,39.26a4,4,0,1,1-5.61,0A4,4,0,0,1,48.61,39.26Zm-4.21,4.2a2,2,0,1,0,0-2.8A2,2,0,0,0,44.4,43.46Z"/><rect class="cls-4" x="84.06" y="64.26" width="24.62" height="2.09" transform="translate(136.65 174.52) rotate(-144.37)"/><ellipse class="cls-5" cx="66.43" cy="91.91" rx="42.94" ry="12.28"/><path class="cls-6" d="M53.69,50L51.8,51.9l14,32.27v-5.1L55.33,47.82A10.84,10.84,0,0,1,53.69,50Z"/><path class="cls-6" d="M37.06,66.19h4.53a4.4,4.4,0,0,1,8.14,0h4.53L45.66,46.3Z"/><path class="cls-6" d="M38.13,49.54a10.36,10.36,0,0,1-1.91-2.74L35.85,46l-11,32.86,0,8.59L40.33,51.75ZM25.56,79.07L36,47.82A10.85,10.85,0,0,0,37.64,50l1.88,1.88-14,32.27v-5.1Z"/><path class="cls-6" d="M38.13,49.54a10.36,10.36,0,0,1-1.91-2.74L35.85,46l-11,32.86,0,8.59L40.33,51.75Z"/><path class="cls-6" d="M41.2,49.74l3.52-8.14a1,1,0,0,1,1.87,0l3.52,8.14,1.64-1.64A8.86,8.86,0,0,0,54.17,42a8.52,8.52,0,0,0-17,0,8.87,8.87,0,0,0,2.44,6.1Z"/><path class="cls-6" d="M36,66.87h6l0.08-.23a3.72,3.72,0,0,1,7,0l0.08,0.23H55.3l-9.64-22.3Z"/><path class="cls-6" d="M55.1,46.8a10.34,10.34,0,0,1-1.9,2.72L51,51.75,66.44,87.49V79l-11-33Z"/><path class="cls-6" d="M41.2,49.74l3.52-8.14a1,1,0,0,1,1.87,0l3.52,8.14,1.64-1.64A8.86,8.86,0,0,0,54.17,42a8.52,8.52,0,0,0-17,0,8.87,8.87,0,0,0,2.44,6.1Z"/><path class="cls-6" d="M36,66.87h6l0.08-.23a3.72,3.72,0,0,1,7,0l0.08,0.23H55.3l-9.64-22.3Z"/><path class="cls-6" d="M38.13,49.54a10.36,10.36,0,0,1-1.91-2.74L35.85,46l-11,32.86,0,8.59L40.33,51.75Z"/><path class="cls-6" d="M55.1,46.8a10.34,10.34,0,0,1-1.9,2.72L51,51.75,66.44,87.49V79l-11-33Z"/><rect class="cls-6" x="43.95" y="25.31" width="3.41" height="6.14"/><path class="cls-6" d="M38.13,49.54a10.36,10.36,0,0,1-1.91-2.74L35.85,46l-11,32.86,0,8.59L40.33,51.75Z"/><path class="cls-6" d="M41.2,49.74l3.52-8.14a1,1,0,0,1,1.87,0l3.52,8.14,1.64-1.64A8.86,8.86,0,0,0,54.17,42a8.52,8.52,0,0,0-17,0,8.87,8.87,0,0,0,2.44,6.1Z"/><path class="cls-6" d="M55.1,46.8a10.34,10.34,0,0,1-1.9,2.72L51,51.75,66.44,87.49V79l-11-33Z"/><path class="cls-6" d="M36,66.87h6l0.08-.23a3.72,3.72,0,0,1,7,0l0.08,0.23H55.3l-9.64-22.3Z"/><path class="cls-2" d="M68.42,78.47h0L56.2,41.75a10.55,10.55,0,0,0-6.58-9.53l-0.21-.09V23.27H41.91v8.87l-0.21.09a10.55,10.55,0,0,0-6.58,9.53l0,0.1L22.89,78.47a1,1,0,0,0-.05.32V92.42a1,1,0,0,0,2,.4L35.13,68.91h6.93l0.08,0.23a3.72,3.72,0,0,0,7,0l0.08-.23h6.93L66.52,92.82a1,1,0,0,0,2-.4V78.79A1,1,0,0,0,68.42,78.47ZM43.95,25.31h3.41v6.14H43.95V25.31Zm1.71,8.17A8.53,8.53,0,0,1,54.17,42a8.86,8.86,0,0,1-2.42,6.09l-1.64,1.64L46.59,41.6a1,1,0,0,0-1.87,0L41.2,49.74l-1.63-1.63A8.87,8.87,0,0,1,37.14,42,8.53,8.53,0,0,1,45.66,33.49Zm-20.78,54,0-8.59L35.85,46l0.37,0.76a10.36,10.36,0,0,0,1.91,2.74l2.21,2.21ZM49.25,66.87l-0.08-.23a3.72,3.72,0,0,0-7,0l-0.08.23H36l9.64-22.3,9.64,22.3H49.25ZM66.44,87.49L51,51.75l2.22-2.22a10.34,10.34,0,0,0,1.9-2.72L55.47,46l11,33v8.48Z"/><circle class="cls-4" cx="108.02" cy="73.62" r="5.92"/><circle class="cls-1" cx="201.22" cy="66.08" r="63.11"/><rect class="cls-7" x="176.5" y="71.97" width="39.13" height="25.46" rx="2.03" ry="2.03"/><path class="cls-4" d="M197.1,17.22V27.74s4.34,2.81,10.34,0V17.22S202,14.32,197.1,17.22Z"/><path class="cls-4" d="M183.75,28.13V39.05s4.34,2.92,10.34,0V28.13S188.68,25.12,183.75,28.13Z"/><path class="cls-4" d="M209.83,28.29V39.21s4.34,2.92,10.34,0V28.29S214.76,25.28,209.83,28.29Z"/><path class="cls-4" d="M222.71,39.93V50.85s4.34,2.92,10.34,0V39.93S227.64,36.92,222.71,39.93Z"/><path class="cls-4" d="M169,39.93V50.85s4.34,2.92,10.34,0V39.93S173.94,36.92,169,39.93Z"/><path class="cls-4" d="M183.91,50.79V61.72s4.34,2.92,10.34,0V50.79S188.84,47.79,183.91,50.79Z"/><path class="cls-4" d="M210,50.79V61.72s4.34,2.92,10.34,0V50.79S214.92,47.79,210,50.79Z"/><path class="cls-4" d="M156.12,50.79V61.72s4.34,2.92,10.34,0V50.79S161.05,47.79,156.12,50.79Z"/><path class="cls-4" d="M236.91,50.79V61.72s4.34,2.92,10.34,0V50.79S241.84,47.79,236.91,50.79Z"/><path class="cls-4" d="M196.48,40.08V51s4.34,2.92,10.34,0V40.08S201.41,37.08,196.48,40.08Z"/><path class="cls-8" d="M202.27,29.35c2.81,0,5.65-.55,5.65-1.61V25.86a0.72,0.72,0,0,0-.25-0.51,0.71,0.71,0,0,0,.25-0.5V23a0.72,0.72,0,0,0-.24-0.5,0.71,0.71,0,0,0,.24-0.5V20.1a0.72,0.72,0,0,0-.25-0.51,0.71,0.71,0,0,0,.25-0.5V17.22c0-1.06-2.84-1.61-5.65-1.61s-5.65.55-5.65,1.61v1.87a0.71,0.71,0,0,0,.25.5,0.72,0.72,0,0,0-.25.51V22a0.7,0.7,0,0,0,.24.5,0.72,0.72,0,0,0-.24.51v1.87a0.71,0.71,0,0,0,.25.5,0.72,0.72,0,0,0-.25.51v1.87C196.62,28.79,199.46,29.35,202.27,29.35Zm5.17-1.61c0,0.39-1.78,1.13-5.17,1.13s-5.17-.73-5.17-1.13V25.86a0.36,0.36,0,0,1,.16-0.23,15.63,15.63,0,0,0,10,0,0.36,0.36,0,0,1,.16.23v1.87ZM197.1,17.91h0L197.33,18l0.09,0,0.18,0.08,0.12,0,0.17,0.06,0.38,0.12h0a18.33,18.33,0,0,0,8,0h0l0.39-.12,0.17-.06,0.12,0,0.18-.08,0.09,0,0.21-.12h0v1.18c0,0.39-1.78,1.13-5.17,1.13s-5.17-.73-5.17-1.13V17.91Zm0,2.19a0.36,0.36,0,0,1,.16-0.23,15.62,15.62,0,0,0,10,0,0.36,0.36,0,0,1,.16.23V22c0,0.39-1.78,1.13-5.17,1.13s-5.17-.73-5.17-1.13V20.1Zm0,2.87a0.34,0.34,0,0,1,.15-0.22,15.58,15.58,0,0,0,10,0,0.35,0.35,0,0,1,.16.22v1.87c0,0.39-1.78,1.13-5.17,1.13s-5.17-.73-5.17-1.13V23Zm5.17-6.89c3.39,0,5.17.73,5.17,1.13s-1.78,1.13-5.17,1.13-5.17-.73-5.17-1.13S198.88,16.09,202.27,16.09Z"/><path class="cls-8" d="M188.91,40.59c2.81,0,5.65-.55,5.65-1.61V37.1a0.72,0.72,0,0,0-.25-0.51,0.71,0.71,0,0,0,.25-0.5V34.22a0.72,0.72,0,0,0-.24-0.5,0.71,0.71,0,0,0,.24-0.5V31.35a0.72,0.72,0,0,0-.25-0.51,0.71,0.71,0,0,0,.25-0.5V28.46c0-1.06-2.84-1.61-5.65-1.61s-5.65.55-5.65,1.61v1.87a0.71,0.71,0,0,0,.25.5,0.72,0.72,0,0,0-.25.51v1.87a0.7,0.7,0,0,0,.24.5,0.72,0.72,0,0,0-.24.51v1.87a0.71,0.71,0,0,0,.25.5,0.72,0.72,0,0,0-.25.51V39C183.26,40,186.1,40.59,188.91,40.59ZM194.08,39c0,0.39-1.78,1.13-5.17,1.13s-5.17-.73-5.17-1.13V37.1a0.36,0.36,0,0,1,.16-0.23,15.63,15.63,0,0,0,10,0,0.36,0.36,0,0,1,.16.23V39Zm-10.34-9.82h0L184,29.29l0.09,0,0.18,0.08,0.12,0,0.17,0.06,0.38,0.12h0a18.33,18.33,0,0,0,8,0h0l0.39-.12,0.17-.06,0.12,0,0.18-.08,0.09,0,0.21-.12h0v1.18c0,0.39-1.78,1.13-5.17,1.13s-5.17-.73-5.17-1.13V29.16Zm0,2.19a0.36,0.36,0,0,1,.16-0.23,15.62,15.62,0,0,0,10,0,0.36,0.36,0,0,1,.16.23v1.87c0,0.39-1.78,1.13-5.17,1.13s-5.17-.73-5.17-1.13V31.35Zm0,2.87A0.34,0.34,0,0,1,183.9,34a15.58,15.58,0,0,0,10,0,0.35,0.35,0,0,1,.16.22v1.87c0,0.39-1.78,1.13-5.17,1.13s-5.17-.73-5.17-1.13V34.22Zm5.17-6.89c3.39,0,5.17.73,5.17,1.13s-1.78,1.13-5.17,1.13-5.17-.73-5.17-1.13S185.52,27.33,188.91,27.33Z"/><path class="cls-8" d="M215,40.59c2.81,0,5.65-.55,5.65-1.61V37.1a0.72,0.72,0,0,0-.25-0.51,0.71,0.71,0,0,0,.25-0.5V34.22a0.72,0.72,0,0,0-.24-0.5,0.71,0.71,0,0,0,.24-0.5V31.35a0.72,0.72,0,0,0-.25-0.51,0.71,0.71,0,0,0,.25-0.5V28.46c0-1.06-2.84-1.61-5.65-1.61s-5.65.55-5.65,1.61v1.87a0.71,0.71,0,0,0,.25.5,0.72,0.72,0,0,0-.25.51v1.87a0.7,0.7,0,0,0,.24.5,0.72,0.72,0,0,0-.24.51v1.87a0.71,0.71,0,0,0,.25.5,0.72,0.72,0,0,0-.25.51V39C209.34,40,212.18,40.59,215,40.59ZM220.16,39c0,0.39-1.78,1.13-5.17,1.13s-5.17-.73-5.17-1.13V37.1a0.36,0.36,0,0,1,.16-0.23,15.63,15.63,0,0,0,10,0,0.36,0.36,0,0,1,.16.23V39Zm-10.34-9.82h0l0.21,0.12,0.09,0,0.18,0.08,0.12,0,0.17,0.06L211,29.63h0a18.33,18.33,0,0,0,8,0h0l0.39-.12,0.17-.06,0.12,0,0.18-.08,0.09,0,0.21-.12h0v1.18c0,0.39-1.78,1.13-5.17,1.13s-5.17-.73-5.17-1.13V29.16Zm0,2.19a0.36,0.36,0,0,1,.16-0.23,15.62,15.62,0,0,0,10,0,0.36,0.36,0,0,1,.16.23v1.87c0,0.39-1.78,1.13-5.17,1.13s-5.17-.73-5.17-1.13V31.35Zm0,2.87A0.34,0.34,0,0,1,210,34a15.58,15.58,0,0,0,10,0,0.35,0.35,0,0,1,.16.22v1.87c0,0.39-1.78,1.13-5.17,1.13s-5.17-.73-5.17-1.13V34.22ZM215,27.33c3.39,0,5.17.73,5.17,1.13s-1.78,1.13-5.17,1.13-5.17-.73-5.17-1.13S211.6,27.33,215,27.33Z"/><path class="cls-8" d="M188.91,63.07c2.81,0,5.65-.55,5.65-1.61V59.58a0.72,0.72,0,0,0-.25-0.51,0.71,0.71,0,0,0,.25-0.5V56.7a0.72,0.72,0,0,0-.24-0.5,0.71,0.71,0,0,0,.24-0.5V53.82a0.72,0.72,0,0,0-.25-0.51,0.71,0.71,0,0,0,.25-0.5V50.94c0-1.06-2.84-1.61-5.65-1.61s-5.65.55-5.65,1.61v1.87a0.71,0.71,0,0,0,.25.5,0.72,0.72,0,0,0-.25.51v1.87a0.7,0.7,0,0,0,.24.5,0.72,0.72,0,0,0-.24.51v1.87a0.71,0.71,0,0,0,.25.5,0.72,0.72,0,0,0-.25.51v1.87C183.26,62.51,186.1,63.07,188.91,63.07Zm5.17-1.61c0,0.39-1.78,1.13-5.17,1.13s-5.17-.73-5.17-1.13V59.58a0.36,0.36,0,0,1,.16-0.23,15.63,15.63,0,0,0,10,0,0.36,0.36,0,0,1,.16.23v1.87Zm-10.34-9.82h0L184,51.76l0.09,0,0.18,0.08,0.12,0L184.53,52l0.38,0.12h0a18.33,18.33,0,0,0,8,0h0L193.3,52l0.17-.06,0.12,0,0.18-.08,0.09,0,0.21-.12h0v1.18c0,0.39-1.78,1.13-5.17,1.13s-5.17-.73-5.17-1.13V51.63Zm0,2.19a0.36,0.36,0,0,1,.16-0.23,15.62,15.62,0,0,0,10,0,0.36,0.36,0,0,1,.16.23v1.87c0,0.39-1.78,1.13-5.17,1.13s-5.17-.73-5.17-1.13V53.82Zm0,2.87a0.34,0.34,0,0,1,.15-0.22,15.58,15.58,0,0,0,10,0,0.35,0.35,0,0,1,.16.22v1.87c0,0.39-1.78,1.13-5.17,1.13s-5.17-.73-5.17-1.13V56.7Zm5.17-6.89c3.39,0,5.17.73,5.17,1.13s-1.78,1.13-5.17,1.13-5.17-.73-5.17-1.13S185.52,49.81,188.91,49.81Z"/><path class="cls-8" d="M161.13,63.07c2.81,0,5.65-.55,5.65-1.61V59.58a0.72,0.72,0,0,0-.25-0.51,0.71,0.71,0,0,0,.25-0.5V56.7a0.72,0.72,0,0,0-.24-0.5,0.71,0.71,0,0,0,.24-0.5V53.82a0.72,0.72,0,0,0-.25-0.51,0.71,0.71,0,0,0,.25-0.5V50.94c0-1.06-2.84-1.61-5.65-1.61s-5.65.55-5.65,1.61v1.87a0.71,0.71,0,0,0,.25.5,0.72,0.72,0,0,0-.25.51v1.87a0.7,0.7,0,0,0,.24.5,0.72,0.72,0,0,0-.24.51v1.87a0.71,0.71,0,0,0,.25.5,0.72,0.72,0,0,0-.25.51v1.87C155.47,62.51,158.32,63.07,161.13,63.07Zm5.17-1.61c0,0.39-1.78,1.13-5.17,1.13S156,61.85,156,61.45V59.58a0.36,0.36,0,0,1,.16-0.23,15.63,15.63,0,0,0,10,0,0.36,0.36,0,0,1,.16.23v1.87ZM156,51.63h0l0.21,0.12,0.09,0,0.18,0.08,0.12,0L156.74,52l0.38,0.12h0a18.33,18.33,0,0,0,8,0h0l0.39-.12,0.17-.06,0.12,0L166,51.8l0.09,0,0.21-.12h0v1.18c0,0.39-1.78,1.13-5.17,1.13S156,53.2,156,52.81V51.63Zm0,2.19a0.36,0.36,0,0,1,.16-0.23,15.62,15.62,0,0,0,10,0,0.36,0.36,0,0,1,.16.23v1.87c0,0.39-1.78,1.13-5.17,1.13S156,56.09,156,55.69V53.82Zm0,2.87a0.34,0.34,0,0,1,.15-0.22,15.58,15.58,0,0,0,10,0,0.35,0.35,0,0,1,.16.22v1.87c0,0.39-1.78,1.13-5.17,1.13S156,59,156,58.57V56.7Zm5.17-6.89c3.39,0,5.17.73,5.17,1.13s-1.78,1.13-5.17,1.13S156,51.33,156,50.94,157.73,49.81,161.13,49.81Z"/><path class="cls-8" d="M241.92,63.07c2.81,0,5.65-.55,5.65-1.61V59.58a0.72,0.72,0,0,0-.25-0.51,0.71,0.71,0,0,0,.25-0.5V56.7a0.72,0.72,0,0,0-.24-0.5,0.71,0.71,0,0,0,.24-0.5V53.82a0.72,0.72,0,0,0-.25-0.51,0.71,0.71,0,0,0,.25-0.5V50.94c0-1.06-2.84-1.61-5.65-1.61s-5.65.55-5.65,1.61v1.87a0.71,0.71,0,0,0,.25.5,0.72,0.72,0,0,0-.25.51v1.87a0.7,0.7,0,0,0,.24.5,0.72,0.72,0,0,0-.24.51v1.87a0.71,0.71,0,0,0,.25.5,0.72,0.72,0,0,0-.25.51v1.87C236.27,62.51,239.11,63.07,241.92,63.07Zm5.17-1.61c0,0.39-1.78,1.13-5.17,1.13s-5.17-.73-5.17-1.13V59.58a0.36,0.36,0,0,1,.16-0.23,15.63,15.63,0,0,0,10,0,0.36,0.36,0,0,1,.16.23v1.87Zm-10.34-9.82h0L237,51.76l0.09,0,0.18,0.08,0.12,0L237.54,52l0.38,0.12h0a18.33,18.33,0,0,0,8,0h0L246.3,52l0.17-.06,0.12,0,0.18-.08,0.09,0,0.21-.12h0v1.18c0,0.39-1.78,1.13-5.17,1.13s-5.17-.73-5.17-1.13V51.63Zm0,2.19a0.36,0.36,0,0,1,.16-0.23,15.62,15.62,0,0,0,10,0,0.36,0.36,0,0,1,.16.23v1.87c0,0.39-1.78,1.13-5.17,1.13s-5.17-.73-5.17-1.13V53.82Zm0,2.87a0.34,0.34,0,0,1,.15-0.22,15.58,15.58,0,0,0,10,0,0.35,0.35,0,0,1,.16.22v1.87c0,0.39-1.78,1.13-5.17,1.13s-5.17-.73-5.17-1.13V56.7Zm5.17-6.89c3.39,0,5.17.73,5.17,1.13s-1.78,1.13-5.17,1.13-5.17-.73-5.17-1.13S238.53,49.81,241.92,49.81Z"/><path class="cls-8" d="M215,63.07c2.81,0,5.65-.55,5.65-1.61V59.58a0.72,0.72,0,0,0-.25-0.51,0.71,0.71,0,0,0,.25-0.5V56.7a0.72,0.72,0,0,0-.24-0.5,0.71,0.71,0,0,0,.24-0.5V53.82a0.72,0.72,0,0,0-.25-0.51,0.71,0.71,0,0,0,.25-0.5V50.94c0-1.06-2.84-1.61-5.65-1.61s-5.65.55-5.65,1.61v1.87a0.71,0.71,0,0,0,.25.5,0.72,0.72,0,0,0-.25.51v1.87a0.7,0.7,0,0,0,.24.5,0.72,0.72,0,0,0-.24.51v1.87a0.71,0.71,0,0,0,.25.5,0.72,0.72,0,0,0-.25.51v1.87C209.34,62.51,212.18,63.07,215,63.07Zm5.17-1.61c0,0.39-1.78,1.13-5.17,1.13s-5.17-.73-5.17-1.13V59.58a0.36,0.36,0,0,1,.16-0.23,15.63,15.63,0,0,0,10,0,0.36,0.36,0,0,1,.16.23v1.87Zm-10.34-9.82h0l0.21,0.12,0.09,0,0.18,0.08,0.12,0L210.61,52,211,52.11h0a18.33,18.33,0,0,0,8,0h0l0.39-.12,0.17-.06,0.12,0,0.18-.08,0.09,0,0.21-.12h0v1.18c0,0.39-1.78,1.13-5.17,1.13s-5.17-.73-5.17-1.13V51.63Zm0,2.19A0.36,0.36,0,0,1,210,53.6a15.62,15.62,0,0,0,10,0,0.36,0.36,0,0,1,.16.23v1.87c0,0.39-1.78,1.13-5.17,1.13s-5.17-.73-5.17-1.13V53.82Zm0,2.87a0.34,0.34,0,0,1,.15-0.22,15.58,15.58,0,0,0,10,0,0.35,0.35,0,0,1,.16.22v1.87c0,0.39-1.78,1.13-5.17,1.13s-5.17-.73-5.17-1.13V56.7ZM215,49.81c3.39,0,5.17.73,5.17,1.13s-1.78,1.13-5.17,1.13-5.17-.73-5.17-1.13S211.6,49.81,215,49.81Z"/><path class="cls-8" d="M201.8,52.36c2.81,0,5.65-.55,5.65-1.61V48.87a0.72,0.72,0,0,0-.25-0.51,0.71,0.71,0,0,0,.25-0.5V46a0.72,0.72,0,0,0-.24-0.5,0.71,0.71,0,0,0,.24-0.5V43.12a0.72,0.72,0,0,0-.25-0.51,0.71,0.71,0,0,0,.25-0.5V40.23c0-1.06-2.84-1.61-5.65-1.61s-5.65.55-5.65,1.61V42.1a0.71,0.71,0,0,0,.25.5,0.72,0.72,0,0,0-.25.51V45a0.7,0.7,0,0,0,.24.5,0.72,0.72,0,0,0-.24.51v1.87a0.71,0.71,0,0,0,.25.5,0.72,0.72,0,0,0-.25.51v1.87C196.15,51.8,199,52.36,201.8,52.36ZM207,50.75c0,0.39-1.78,1.13-5.17,1.13s-5.17-.73-5.17-1.13V48.87a0.36,0.36,0,0,1,.16-0.23,15.63,15.63,0,0,0,10,0,0.36,0.36,0,0,1,.16.23v1.87Zm-10.34-9.82h0l0.21,0.12,0.09,0,0.18,0.08,0.12,0,0.17,0.06,0.38,0.12h0a18.33,18.33,0,0,0,8,0h0l0.39-.12,0.17-.06,0.12,0,0.18-.08,0.09,0,0.21-.12h0V42.1c0,0.39-1.78,1.13-5.17,1.13s-5.17-.73-5.17-1.13V40.93Zm0,2.19a0.36,0.36,0,0,1,.16-0.23,15.62,15.62,0,0,0,10,0,0.36,0.36,0,0,1,.16.23V45c0,0.39-1.78,1.13-5.17,1.13s-5.17-.73-5.17-1.13V43.12Zm0,2.87a0.34,0.34,0,0,1,.15-0.22,15.58,15.58,0,0,0,10,0A0.35,0.35,0,0,1,207,46v1.87c0,0.39-1.78,1.13-5.17,1.13s-5.17-.73-5.17-1.13V46Zm5.17-6.89c3.39,0,5.17.73,5.17,1.13s-1.78,1.13-5.17,1.13-5.17-.73-5.17-1.13S198.41,39.1,201.8,39.1Z"/><path class="cls-8" d="M174.63,52.2c2.81,0,5.65-.55,5.65-1.61V48.72a0.72,0.72,0,0,0-.25-0.51,0.71,0.71,0,0,0,.25-0.5V45.83a0.72,0.72,0,0,0-.24-0.5,0.71,0.71,0,0,0,.24-0.5V43a0.72,0.72,0,0,0-.25-0.51,0.71,0.71,0,0,0,.25-0.5V40.07c0-1.06-2.84-1.61-5.65-1.61S169,39,169,40.07v1.87a0.71,0.71,0,0,0,.25.5A0.72,0.72,0,0,0,169,43v1.87a0.7,0.7,0,0,0,.24.5,0.72,0.72,0,0,0-.24.51v1.87a0.71,0.71,0,0,0,.25.5,0.72,0.72,0,0,0-.25.51v1.87C169,51.65,171.82,52.2,174.63,52.2Zm5.17-1.61c0,0.39-1.78,1.13-5.17,1.13s-5.17-.73-5.17-1.13V48.72a0.36,0.36,0,0,1,.16-0.23,15.63,15.63,0,0,0,10,0,0.36,0.36,0,0,1,.16.23v1.87Zm-10.34-9.82h0l0.21,0.12,0.09,0L170,41l0.12,0,0.17,0.06,0.38,0.12h0a18.33,18.33,0,0,0,8,0h0l0.39-.12,0.17-.06,0.12,0,0.18-.08,0.09,0,0.21-.12h0v1.18c0,0.39-1.78,1.13-5.17,1.13s-5.17-.73-5.17-1.13V40.77Zm0,2.19a0.36,0.36,0,0,1,.16-0.23,15.62,15.62,0,0,0,10,0,0.36,0.36,0,0,1,.16.23v1.87c0,0.39-1.78,1.13-5.17,1.13s-5.17-.73-5.17-1.13V43Zm0,2.87a0.34,0.34,0,0,1,.15-0.22,15.58,15.58,0,0,0,10,0,0.35,0.35,0,0,1,.16.22v1.87c0,0.39-1.78,1.13-5.17,1.13s-5.17-.73-5.17-1.13V45.83Zm5.17-6.89c3.39,0,5.17.73,5.17,1.13S178,41.2,174.63,41.2s-5.17-.73-5.17-1.13S171.24,38.95,174.63,38.95Z"/><path class="cls-8" d="M228,52.2c2.81,0,5.65-.55,5.65-1.61V48.72a0.72,0.72,0,0,0-.25-0.51,0.71,0.71,0,0,0,.25-0.5V45.83a0.72,0.72,0,0,0-.24-0.5,0.71,0.71,0,0,0,.24-0.5V43a0.72,0.72,0,0,0-.25-0.51,0.71,0.71,0,0,0,.25-0.5V40.07c0-1.06-2.84-1.61-5.65-1.61s-5.65.55-5.65,1.61v1.87a0.71,0.71,0,0,0,.25.5,0.72,0.72,0,0,0-.25.51v1.87a0.7,0.7,0,0,0,.24.5,0.72,0.72,0,0,0-.24.51v1.87a0.71,0.71,0,0,0,.25.5,0.72,0.72,0,0,0-.25.51v1.87C222.37,51.65,225.22,52.2,228,52.2Zm5.17-1.61c0,0.39-1.78,1.13-5.17,1.13s-5.17-.73-5.17-1.13V48.72a0.36,0.36,0,0,1,.16-0.23,15.63,15.63,0,0,0,10,0,0.36,0.36,0,0,1,.16.23v1.87Zm-10.34-9.82h0l0.21,0.12,0.09,0L223.35,41l0.12,0,0.17,0.06L224,41.24h0a18.33,18.33,0,0,0,8,0h0l0.39-.12,0.17-.06,0.12,0,0.18-.08,0.09,0,0.21-.12h0v1.18c0,0.39-1.78,1.13-5.17,1.13s-5.17-.73-5.17-1.13V40.77Zm0,2.19a0.36,0.36,0,0,1,.16-0.23,15.62,15.62,0,0,0,10,0,0.36,0.36,0,0,1,.16.23v1.87c0,0.39-1.78,1.13-5.17,1.13s-5.17-.73-5.17-1.13V43Zm0,2.87a0.34,0.34,0,0,1,.15-0.22,15.58,15.58,0,0,0,10,0,0.35,0.35,0,0,1,.16.22v1.87c0,0.39-1.78,1.13-5.17,1.13s-5.17-.73-5.17-1.13V45.83ZM228,38.95c3.39,0,5.17.73,5.17,1.13S231.42,41.2,228,41.2s-5.17-.73-5.17-1.13S224.63,38.95,228,38.95Z"/><line class="cls-9" x1="180.98" y1="78.7" x2="206.31" y2="78.62"/><line class="cls-9" x1="180.98" y1="82.03" x2="199.31" y2="81.95"/><path class="cls-2" d="M232,107.4l-8.76-5.29a5.84,5.84,0,0,0-1-.44,2.56,2.56,0,0,0,.18-0.94V76.33a2.58,2.58,0,0,0-2.57-2.58H182.51a2.58,2.58,0,0,0-2.57,2.58v24.39a2.55,2.55,0,0,0,.18.94,6,6,0,0,0-1,.44l-8.76,5.29a1.43,1.43,0,0,0,.77,2.75h60.11A1.43,1.43,0,0,0,232,107.4Zm-50-6.67V76.33a0.45,0.45,0,0,1,.45-0.45h37.41a0.45,0.45,0,0,1,.45.45v24.39a0.45,0.45,0,0,1-.45.45H182.51A0.45,0.45,0,0,1,182.06,100.72Zm-8.6,7.31,6.79-4.1a5.41,5.41,0,0,1,2.26-.63h37.41a5.44,5.44,0,0,1,2.26.63L229,108H173.46Z"/><polygon class="cls-10" points="178.62 106.73 223.96 106.91 220.6 104.78 181.99 104.61 178.62 106.73"/><circle class="cls-1" cx="338.07" cy="66.08" r="63.11"/><rect class="cls-4" x="303.09" y="29.78" width="21" height="8"/><rect class="cls-4" x="328.68" y="30.42" width="19.91" height="7.36"/><rect class="cls-4" x="353.43" y="30.42" width="19.91" height="7.36"/><rect class="cls-4" x="324.43" y="84.92" width="29.99" height="7.36"/><rect class="cls-4" x="324.43" y="96.92" width="30.4" height="7.36"/><rect class="cls-4" x="304.09" y="42.53" width="21" height="8"/><rect class="cls-4" x="329.68" y="43.17" width="19.91" height="7.36"/><rect class="cls-4" x="354.43" y="43.17" width="19.91" height="7.36"/><rect class="cls-11" x="329.47" y="62.76" width="11.5" height="11.5" transform="translate(49.74 257.1) rotate(-45)"/><line class="cls-12" x1="327.84" y1="107.28" x2="357.84" y2="107.28"/><line class="cls-12" x1="367.34" y1="52.53" x2="367.34" y2="64.78"/><line class="cls-12" x1="311.47" y1="61.57" x2="311.47" y2="71.82"/><line class="cls-12" x1="323.46" y1="71.32" x2="311.21" y2="71.32"/><path class="cls-2" d="M305.22,51.48h8.5V68a1.13,1.13,0,0,0,1.13,1.13h16.42l7.18,7.18v7.16H324a1.13,1.13,0,0,0-1.13,1.13v7.2A1.13,1.13,0,0,0,324,92.92h14.45v2.94H324A1.13,1.13,0,0,0,322.88,97v7.2a1.13,1.13,0,0,0,1.13,1.13h31.17a1.13,1.13,0,0,0,1.13-1.13V97a1.13,1.13,0,0,0-1.13-1.13H340.72V92.92h14.45a1.13,1.13,0,0,0,1.13-1.13v-7.2a1.13,1.13,0,0,0-1.13-1.13H340.72V76.31l7.18-7.18h16.42A1.13,1.13,0,0,0,365.45,68V51.48H374a1.13,1.13,0,0,0,1.13-1.13v-7.2A1.13,1.13,0,0,0,374,42h-8.5V39.08H374a1.13,1.13,0,0,0,1.13-1.13v-7.2A1.13,1.13,0,0,0,374,29.62H354.69a1.13,1.13,0,0,0-1.13,1.13v7.2a1.13,1.13,0,0,0,1.13,1.13h8.5V42h-8.5a1.13,1.13,0,0,0-1.13,1.13v7.2a1.13,1.13,0,0,0,1.13,1.13h8.5V66.86H347.9l-7.18-7.18v-8.2h8.5a1.13,1.13,0,0,0,1.13-1.13v-7.2A1.13,1.13,0,0,0,349.22,42h-8.5V39.08h8.5a1.13,1.13,0,0,0,1.13-1.13v-7.2a1.13,1.13,0,0,0-1.13-1.13H330a1.13,1.13,0,0,0-1.13,1.13v7.2A1.13,1.13,0,0,0,330,39.08h8.5V42H330a1.13,1.13,0,0,0-1.13,1.13v7.2A1.13,1.13,0,0,0,330,51.48h8.5v8.2l-7.18,7.18H316V51.48h8.5a1.13,1.13,0,0,0,1.13-1.13v-7.2A1.13,1.13,0,0,0,324.49,42H316V39.08h8.5a1.13,1.13,0,0,0,1.13-1.13v-7.2a1.13,1.13,0,0,0-1.13-1.13H305.22a1.13,1.13,0,0,0-1.13,1.13v7.2a1.13,1.13,0,0,0,1.13,1.13h8.5V42h-8.5a1.13,1.13,0,0,0-1.13,1.13v7.2A1.13,1.13,0,0,0,305.22,51.48ZM354,103.06h-28.9V98.13H354v4.94Zm0-12.4h-28.9V85.73H354v4.94Zm1.78-58.79h17v4.94h-17V31.88Zm0,12.4h17v4.94h-17V44.28Zm-24.73-12.4h17v4.94h-17V31.88Zm0,12.4h17v4.94h-17V44.28Zm8.5,17.47L345.83,68l-6.24,6.25L333.35,68ZM306.36,31.88h17v4.94h-17V31.88Zm0,12.4h17v4.94h-17V44.28Z"/><circle class="cls-1" cx="474.93" cy="66.08" r="63.11"/><rect class="cls-2" x="473.79" y="72.93" width="2.28" height="3.04"/><path class="cls-2" d="M473.84,81.9c0,0.1,0,.21,0,0.33l1-.16,1,0.16c0-.12,0-0.23,0-0.33l0.12,0c-0.05-.36-0.07-0.59-0.07-0.59V79h-2.28v2.24s0,0.27-.07.63Z"/><path class="cls-2" d="M490.76,91.37l-4.87-4.88v4.07l-0.48,0-0.27,2.26,0.75,0.07v3.39Z"/><path class="cls-2" d="M479,90.58a12.41,12.41,0,0,0,3,1.49l0.74-2.16a10.1,10.1,0,0,1-2.43-1.21Z"/><path class="cls-2" d="M474.93,85.36l-2-.84a10.06,10.06,0,0,1-1.38,2.34l1.78,1.42a12.23,12.23,0,0,0,1.57-2.59,12.23,12.23,0,0,0,1.57,2.59l1.78-1.42a10,10,0,0,1-1.39-2.34Z"/><path class="cls-2" d="M464,90.57V86.5l-4.88,4.88L464,96.25V92.86l0.75-.07-0.27-2.26Z"/><path class="cls-2" d="M467.17,89.92l0.74,2.16a12.42,12.42,0,0,0,3-1.49l-1.29-1.88A10.11,10.11,0,0,1,467.17,89.92Z"/><path class="cls-13" d="M444.54,84.65c-5.2,0-9.42,5.55-9.42,12.4,0,0.06,0,.12,0,0.17h18.82c0-.06,0-0.12,0-0.17C454,90.2,449.74,84.65,444.54,84.65Z"/><ellipse class="cls-13" cx="444.54" cy="77.87" rx="4.42" ry="4.56"/><path class="cls-13" d="M505.3,84.65c-5.2,0-9.42,5.55-9.42,12.4,0,0.06,0,.12,0,0.17h18.82c0-.06,0-0.12,0-0.17C514.72,90.2,510.5,84.65,505.3,84.65Z"/><ellipse class="cls-13" cx="505.3" cy="77.87" rx="4.42" ry="4.56"/><path class="cls-4" d="M472.95,36.74c-10.77,0-19.51,11.49-19.51,25.67,0,0.12,0,.24,0,0.36h39c0-.12,0-0.24,0-0.36C492.45,48.24,483.72,36.74,472.95,36.74Z"/><ellipse class="cls-4" cx="472.95" cy="22.7" rx="9.16" ry="9.44"/><line class="cls-14" x1="475.96" y1="58.73" x2="511.63" y2="58.73"/><line class="cls-14" x1="480.27" y1="55.62" x2="504.76" y2="55.62"/><path class="cls-15" d="M476.79,37.07C466,37.07,457.29,48.23,457.29,62c0,0.12,0,.23,0,0.35h39c0-.12,0-0.23,0-0.35C496.3,48.23,487.57,37.07,476.79,37.07Z"/><circle class="cls-15" cx="476.79" cy="23.44" r="9.16"/><path class="cls-4" d="M608.43,32.21A35.09,35.09,0,1,0,643.52,67.3,35.09,35.09,0,0,0,608.43,32.21Zm0,54.64A19.54,19.54,0,1,1,628,67.3,19.54,19.54,0,0,1,608.43,86.85Z"/><circle class="cls-1" cx="611.78" cy="66.08" r="64.82"/><path class="cls-6" d="M606.33,48.8V51.3h11.49v-2.6A19.56,19.56,0,0,0,606.33,48.8Z"/><path class="cls-6" d="M605.34,48.09V35.28a33,33,0,0,0-25.41,25.88h12.74A20.68,20.68,0,0,1,605.34,48.09Z"/><path class="cls-6" d="M618.81,87V99.76a33,33,0,0,0,25.6-25.14H631.57A20.68,20.68,0,0,1,618.81,87Z"/><path class="cls-16" d="M618.81,99.76v1a34,34,0,0,0,26.61-26.14h-1A33,33,0,0,1,618.81,99.76Z"/><path class="cls-16" d="M644.59,61.16h1a34,34,0,0,0-26.78-27v1A33,33,0,0,1,644.59,61.16Z"/><path class="cls-16" d="M580.11,74.63h-1a34,34,0,0,0,26.25,26.07v-1A33,33,0,0,1,580.11,74.63Z"/><path class="cls-16" d="M605.34,35.28v-1a34,34,0,0,0-26.41,26.9h1A33,33,0,0,1,605.34,35.28Z"/><path class="cls-16" d="M605.34,49.15V48.09a20.68,20.68,0,0,0-12.67,13.07h1A19.69,19.69,0,0,1,605.34,49.15Z"/><path class="cls-16" d="M618.81,48v1a19.69,19.69,0,0,1,12,12.14h1A20.68,20.68,0,0,0,618.81,48Z"/><path class="cls-16" d="M594,74.63H593a20.69,20.69,0,0,0,12.39,12.24V85.81A19.7,19.7,0,0,1,594,74.63Z"/><path class="cls-16" d="M618.81,85.94v1a20.68,20.68,0,0,0,12.75-12.36H630.5A19.69,19.69,0,0,1,618.81,85.94Z"/><line class="cls-17" x1="583.34" y1="76.64" x2="583.34" y2="71.64"/><line class="cls-17" x1="585.88" y1="79.64" x2="585.88" y2="71.47"/><line class="cls-17" x1="584.54" y1="78.11" x2="584.54" y2="71.51"/><line class="cls-18" x1="635.2" y1="61.86" x2="635.2" y2="56.49"/><line class="cls-19" x1="637.74" y1="62.94" x2="637.74" y2="54.15"/><line class="cls-20" x1="636.4" y1="62.37" x2="636.4" y2="55.27"/><line class="cls-17" x1="599.83" y1="40.26" x2="608" y2="40.26"/><line class="cls-21" x1="598.19" y1="42.8" x2="611.56" y2="42.8"/><line class="cls-22" x1="599.06" y1="41.46" x2="609.86" y2="41.46"/><line class="cls-17" x1="615.16" y1="91.39" x2="623.34" y2="91.39"/><line class="cls-21" x1="613.52" y1="93.92" x2="626.9" y2="93.92"/><line class="cls-22" x1="614.39" y1="92.59" x2="625.2" y2="92.59"/><rect class="cls-23" x="605.84" y="28.14" width="12.25" height="23.5"/><rect class="cls-23" x="578.59" y="55.89" width="12.25" height="23.5" transform="translate(652.35 -517.08) rotate(90)"/><rect class="cls-23" x="632.09" y="55.89" width="12.25" height="23.5" transform="translate(705.85 -570.58) rotate(90)"/><rect class="cls-23" x="605.84" y="82.39" width="12.25" height="23.5"/><path class="cls-16" d="M605.34,48.09v4.2h13.47V27.77H605.34V48.09Zm1-19.33h11.49V51.3H606.33V28.76Z"/><path class="cls-16" d="M593,74.63h4V61.16H572.45V74.63H593Zm-19.51-1V62.15H596V73.64H573.44Z"/><path class="cls-16" d="M650.72,61.16H626.2V74.63h24.52V61.16Zm-1,12.48H627.19V62.15h22.53V73.64Z"/><path class="cls-16" d="M618.81,87V81.52H605.34V106h13.47V87Zm-1,18.05H606.33V82.51h11.49V105Z"/></svg>