<svg id="Menu" xmlns="http://www.w3.org/2000/svg" viewBox="0 0 21.24 16.43">
  <defs>
    <style>
      .cls-1 {
        fill: #fff;
      }
    </style>
  </defs>
  <title>shield_bullet</title>
  <path class="cls-1" d="M38.3,221.13a21,21,0,0,1,7.18,1.29c0.58,0.21,1,.42,1.39.59a12.71,12.71,0,0,1-1,4.52,10.14,10.14,0,0,1-3.47,4,15.49,15.49,0,0,1-4.09,1.95,15.47,15.47,0,0,1-4.09-1.95,10.12,10.12,0,0,1-3.47-4,12.7,12.7,0,0,1-1-4.52c0.35-.17.82-0.37,1.39-0.59a21,21,0,0,1,7.18-1.29h0m0-2h0a22.91,22.91,0,0,0-7.88,1.42,14.05,14.05,0,0,0-2.61,1.23l-0.11.08s0,0.09,0,.13a15.47,15.47,0,0,0,1.26,6.4,12.11,12.11,0,0,0,4.14,4.78,18,18,0,0,0,5.22,2.39h0a18,18,0,0,0,5.22-2.39,12.13,12.13,0,0,0,4.14-4.78A15.49,15.49,0,0,0,48.9,222s0-.09,0-0.13l-0.12-.08a14,14,0,0,0-2.61-1.23,22.9,22.9,0,0,0-7.88-1.42h0Z" transform="translate(-27.66 -219.13)"/>
</svg>
