<svg id="Menu" xmlns="http://www.w3.org/2000/svg" width="22" height="90.82" viewBox="0 0 22 90.82"><defs><style>.cls-1,.cls-2{fill:#fff;}.cls-1{fill-rule:evenodd;}</style></defs><title>social_logos</title><path class="cls-1" d="M40.41,493.47a10.12,10.12,0,0,0-3.2,19.72,0.51,0.51,0,0,0,.69-0.49c0-.24,0-0.88,0-1.72-2.81.61-3.41-1.36-3.41-1.36a2.68,2.68,0,0,0-1.12-1.48c-0.92-.63.07-0.62,0.07-0.62a2.13,2.13,0,0,1,1.55,1,2.15,2.15,0,0,0,2.94.84,2.16,2.16,0,0,1,.64-1.35c-2.25-.26-4.61-1.12-4.61-5a3.91,3.91,0,0,1,1-2.71,3.64,3.64,0,0,1,.1-2.68s0.85-.27,2.78,1a9.59,9.59,0,0,1,5.07,0c1.93-1.31,2.78-1,2.78-1a3.63,3.63,0,0,1,.1,2.68,3.9,3.9,0,0,1,1,2.71c0,3.89-2.37,4.74-4.62,5a2.41,2.41,0,0,1,.69,1.87c0,1.35,0,2.44,0,2.78a0.51,0.51,0,0,0,.7.49A10.12,10.12,0,0,0,40.41,493.47Z" transform="translate(-28.62 -493.47)"/><path class="cls-2" d="M50.62,534.24a8.37,8.37,0,0,1-2.41.66,4.2,4.2,0,0,0,1.84-2.32,8.38,8.38,0,0,1-2.66,1,4.19,4.19,0,0,0-7.14,3.82A11.89,11.89,0,0,1,31.63,533a4.19,4.19,0,0,0,1.3,5.59,4.17,4.17,0,0,1-1.9-.52v0.05a4.19,4.19,0,0,0,3.36,4.11,4.2,4.2,0,0,1-1.89.07,4.19,4.19,0,0,0,3.91,2.91,8.4,8.4,0,0,1-5.2,1.79,8.5,8.5,0,0,1-1-.06,11.91,11.91,0,0,0,18.33-10q0-.27,0-0.54A8.51,8.51,0,0,0,50.62,534.24Z" transform="translate(-28.62 -493.47)"/><path class="cls-2" d="M28.62,578.54v-3.48a1.23,1.23,0,0,0,0-.17c0-.44,0-0.88.08-1.32a8.91,8.91,0,0,1,.39-2.21,2.57,2.57,0,0,1,2-1.74,13.32,13.32,0,0,1,1.9-.2c1.2-.07,2.4-0.12,3.61-0.13,1.93,0,3.86,0,5.8,0,1.63,0,3.25.1,4.87,0.25a2.75,2.75,0,0,1,2.51,2.12A13.9,13.9,0,0,1,50.1,574a8.62,8.62,0,0,0,.06,1v3.51a1.55,1.55,0,0,0,0,.18c0,0.45,0,.9-0.08,1.36a8.74,8.74,0,0,1-.38,2.16,2.57,2.57,0,0,1-2,1.74,13.19,13.19,0,0,1-1.88.2c-1.21.08-2.43,0.12-3.64,0.13-1.93,0-3.86,0-5.79,0-1.63,0-3.25-.1-4.87-0.25a2.78,2.78,0,0,1-2.51-2.2,17.07,17.07,0,0,1-.3-2.26C28.65,579.21,28.68,578.87,28.62,578.54Zm8-2q0,0.68,0,1.36,0,1,0,1.94c0,0.25,0,.25.21,0.14l0.63-.32,2.68-1.4,3.16-1.63a0.16,0.16,0,0,0,.12-0.1,0.17,0.17,0,0,0-.13-0.1l-2.2-1.15-4.29-2.24c-0.17-.09-0.17-0.09-0.17.1Q36.6,574.88,36.6,576.58Z" transform="translate(-28.62 -493.47)"/></svg>