<?xml version="1.0" encoding="utf-8"?>
<!-- Generator: Adobe Illustrator 19.2.1, SVG Export Plug-In . SVG Version: 6.00 Build 0)  -->
<!DOCTYPE svg PUBLIC "-//W3C//DTD SVG 1.1//EN" "http://www.w3.org/Graphics/SVG/1.1/DTD/svg11.dtd">
<svg version="1.1" id="Layer_1" xmlns="http://www.w3.org/2000/svg" xmlns:xlink="http://www.w3.org/1999/xlink" x="0px" y="0px"
	 viewBox="0 0 180 21.7" style="enable-background:new 0 0 180 21.7;" xml:space="preserve">
<style type="text/css">
	.st0{fill:#1791C2;}
</style>
<title>sw_footer_logo</title>
<g id="Panel_CONTACT">
	<g id="SW_WORDMARK">
		<path class="st0" d="M37.5,11.7h2.6c0,0.2,0,0.4,0.1,0.5c0,0.1,0.1,0.2,0.2,0.3c0.1,0.1,0.2,0.1,0.3,0.1c0.2,0,0.3,0,0.5,0h3.1
			h0.4c0.2,0,0.2-0.1,0.3-0.1c0.1-0.1,0.2-0.2,0.2-0.2c0.1-0.1,0.1-0.2,0.1-0.4s0-0.3-0.1-0.4c-0.2-0.2-0.3-0.2-0.5-0.2
			c-0.4-0.1-0.7-0.1-1.1-0.1c-0.5,0-1.1,0-2,0c-0.8,0-1.6,0-2.3-0.1c-0.5,0-0.9-0.2-1.3-0.4c-0.3-0.2-0.5-0.5-0.5-0.8
			c-0.1-0.4-0.2-0.9-0.2-1.3s0-0.7,0.1-1.1C37.7,7.3,37.8,7,38,6.8c0.3-0.3,0.6-0.5,1-0.5C39.6,6.1,40.3,6,40.9,6h3.5
			c0.6,0,1.2,0.1,1.7,0.2c0.4,0.1,0.7,0.2,0.9,0.5c0.2,0.2,0.4,0.5,0.4,0.8c0.1,0.3,0.1,0.7,0.1,1v0.2h-2.6c0-0.2,0-0.2,0-0.4
			c0-0.1-0.1-0.2-0.2-0.2c-0.1-0.1-0.2-0.2-0.4-0.2c-0.2-0.1-0.5-0.1-0.7-0.1h-2.8c-0.2,0-0.5,0.1-0.7,0.2c-0.2,0.1-0.3,0.3-0.2,0.5
			c0,0.2,0,0.3,0.1,0.4c0.1,0.2,0.2,0.2,0.4,0.2c0.3,0.1,0.6,0.1,0.9,0.1H43c1,0,1.8,0,2.4,0.1c0.5,0,1,0.2,1.5,0.3
			c0.3,0.2,0.6,0.5,0.8,0.8c0.2,0.5,0.2,0.9,0.2,1.4s-0.1,0.9-0.2,1.3c-0.1,0.3-0.3,0.6-0.6,0.8c-0.2,0.4-0.7,0.5-1.1,0.5
			c-0.7,0.1-1.4,0.1-2.1,0.1h-3.1c-0.5,0-1,0-1.5-0.1c-0.4-0.1-0.7-0.2-1-0.3c-0.2-0.2-0.5-0.4-0.5-0.7c-0.2-0.4-0.2-0.7-0.2-1.1
			L37.5,11.7L37.5,11.7z"/>
		<polygon class="st0" points="49.2,6.1 58.9,6.1 58.9,8.1 55.3,8.1 55.3,14.5 52.8,14.5 52.8,8.1 49.2,8.1 		"/>
		<path class="st0" d="M62.8,6.1h3.4l4.5,8.3h-2.8l-0.8-1.5h-5.2l-0.8,1.5h-2.8L62.8,6.1z M62.8,11.1H66L64.4,8L62.8,11.1z"/>
		<path class="st0" d="M72.5,6.1h7.7c0.4,0,0.9,0.1,1.3,0.2c0.6,0.2,1,0.7,1.2,1.3c0.1,0.3,0.2,0.7,0.1,1v0.5c0,0.2,0,0.5-0.1,0.8
			c0,0.2-0.1,0.4-0.2,0.6c-0.1,0.2-0.2,0.3-0.5,0.5c-0.2,0.2-0.5,0.2-0.7,0.3l0,0c0.2,0,0.4,0.1,0.5,0.2c0.2,0.1,0.3,0.2,0.5,0.3
			c0.2,0.2,0.2,0.3,0.3,0.5c0.1,0.3,0.2,0.5,0.1,0.9v1.3h-2.6v-1c0-0.3-0.1-0.6-0.2-0.9c-0.2-0.2-0.5-0.3-0.9-0.2H75v2.2h-2.6V6.1
			H72.5z M75,10.2h4.2c0.2,0,0.5-0.1,0.7-0.2s0.2-0.4,0.2-0.7V8.9c0.1-0.2-0.1-0.5-0.3-0.7c-0.3-0.2-0.5-0.2-0.9-0.2h-4
			C75,8.1,75,10.2,75,10.2z"/>
		<polygon class="st0" points="85,6.1 87.5,6.1 87.5,9.1 88.8,9.1 92,6.1 95.4,6.1 91,10.2 96,14.5 92.4,14.5 88.7,11.3 87.5,11.3 
			87.5,14.5 85,14.5 		"/>
		<path class="st0" d="M102.2,11.6c0-0.3,0-0.5,0.1-0.9c0.1-0.4,0.4-0.8,0.9-0.9c0.3-0.1,0.5-0.2,0.9-0.1l0,0
			c-0.2-0.1-0.3-0.2-0.5-0.3c-0.1-0.1-0.2-0.2-0.2-0.4c-0.1-0.2-0.1-0.3-0.1-0.5c0-0.2,0-0.4,0-0.6c0-0.3,0-0.6,0.1-0.9
			c0.1-0.2,0.2-0.5,0.4-0.5c0.3-0.2,0.6-0.2,0.9-0.3c0.5-0.1,1-0.1,1.6-0.1h2c0.5,0,1.2,0,1.7,0.1c0.4,0,0.7,0.2,1,0.3
			c0.2,0.2,0.4,0.4,0.5,0.7c0.1,0.4,0.2,0.8,0.1,1.2v0.5h-2.2V8.4c0-0.2-0.1-0.4-0.2-0.5c-0.3-0.2-0.5-0.2-0.9-0.2h-1.8
			c-0.2,0-0.5,0-0.7,0.1c-0.2,0.1-0.2,0.2-0.2,0.4c0,0.1,0,0.2,0,0.2s0.1,0.1,0.1,0.2c0.1,0.1,0.1,0.1,0.2,0.2
			c0.1,0.1,0.2,0.1,0.3,0.2l4.1,2.1V9.9h2v1.2c0,0.2,0,0.4,0,0.5c0,0.2,0,0.2-0.1,0.4l1.5,0.8l-0.7,1.6l-1.5-0.8
			c-0.2,0.2-0.3,0.4-0.5,0.5c-0.2,0.1-0.5,0.2-0.7,0.2c-0.2,0.1-0.5,0.1-0.8,0.1c-0.3,0-0.5,0-0.8,0h-3.4c-0.4,0-0.9,0-1.3-0.1
			c-0.3-0.1-0.7-0.2-0.9-0.4c-0.3-0.2-0.5-0.5-0.6-0.7c-0.2-0.4-0.2-0.8-0.2-1.2L102.2,11.6L102.2,11.6z M109.3,12.7
			C109.3,12.7,109.4,12.7,109.3,12.7C109.4,12.7,109.4,12.7,109.3,12.7l-3.8-2.1c-0.2-0.1-0.2-0.1-0.4-0.1c-0.1,0-0.2,0-0.2,0
			s-0.2,0.1-0.2,0.2c-0.1,0.1-0.2,0.2-0.2,0.3c-0.1,0.2-0.1,0.4-0.1,0.5c0,0.2,0,0.4,0.1,0.5s0.2,0.2,0.2,0.3s0.2,0.2,0.4,0.2
			c0.2,0,0.4,0.1,0.5,0.1L109.3,12.7L109.3,12.7z"/>
		<polygon class="st0" points="118.9,6.1 121.4,6.1 123.1,12.2 123.2,12.2 125.3,6.1 127.6,6.1 129.7,12.2 129.8,12.2 131.5,6.1 
			134,6.1 131.4,14.5 128.4,14.5 126.5,8.9 126.5,8.9 124.5,14.5 121.5,14.5 		"/>
		<path class="st0" d="M138,6.1h3.4l4.6,8.4h-2.8l-0.8-1.5h-5.2l-0.8,1.5h-2.8L138,6.1z M138,11.1h3.3L139.7,8L138,11.1z"/>
		<polygon class="st0" points="148.8,11.6 144.2,6.1 147.3,6.1 150.1,9.5 152.9,6.1 156,6.1 151.3,11.6 151.3,14.5 148.8,14.5 		"/>
		<polygon class="st0" points="156.9,6.1 160.9,6.1 165.7,12.1 165.7,12.1 165.7,6.1 168.3,6.1 168.3,14.5 164.3,14.5 159.5,8.4 
			159.4,8.4 159.4,14.5 156.9,14.5 		"/>
		<polygon class="st0" points="170.7,6.1 179.8,6.1 179.8,8.1 173.3,8.1 173.3,9.4 179.5,9.4 179.5,11.1 173.3,11.1 173.3,12.4 
			180,12.4 180,14.5 170.7,14.5 		"/>
	</g>
</g>
<g>
	<g>
		<path class="st0" d="M27.9,3.5c-0.1,0-1.2-0.8-3.4-1.6C22.4,1.1,18.7,0,14.1,0H14C9.4,0,5.6,1.1,3.6,1.9C1.3,2.7,0.2,3.4,0.2,3.5
			C0.1,3.5,0.1,3.6,0,3.6c0,0.1,0,0.1,0,0.2c0,3,0.5,6.1,1.6,8.4c1.2,2.5,3,4.6,5.5,6.3c1.9,1.3,4.1,2.3,6.9,3.1l0,0
			c2.8-0.9,5-1.9,6.9-3.1c2.4-1.7,4.3-3.8,5.5-6.3C27.4,9.8,28,6.8,28,3.8C28,3.7,28,3.7,27.9,3.5C28,3.6,27.9,3.6,27.9,3.5z
			 M12.5,17.7c-1.4-0.5-2.7-1.1-3.8-1.8c-0.8-0.5-1.5-1.1-2.1-1.7c-0.2-0.4-0.2-0.8-0.4-1.1c0.2,0,0.2,0,0.4,0.1
			c1.1,0.2,2.2,0.2,3.4,0.3c0-0.2,0-0.4,0-0.6c0-0.3,0-0.6,0-0.9c-1,0-2.2-0.2-3.3-0.2c-0.2,0-1.1-0.1-1.1-0.1
			c-0.4-0.1-0.9-0.1-0.9-0.1c0,0-0.2-0.2-0.2-0.2C3.8,9.8,3.4,8,3.3,5.9C3.6,5.8,4,5.6,4.4,5.5c2.8-1.1,5.9-1.7,8.8-1.9
			c0,0.2,0,0.4,0,0.6v2.5c-0.1,0-0.2,0-0.2,0c-0.1,0-0.2,0-0.2,0c-2.6,0.1-4.5,0.5-5.9,0.9C7,7.8,7,8.1,7,8.4
			c0.1,0.2,0.1,0.3,0.2,0.5c0.2,0,0.4,0.1,0.5,0.1c1.3,0.2,3,0.1,4,0.1C11.8,9,12,9,12,9c0.2,0,0.3,0,0.5,0s0.4,0,0.4,0
			c0.1,0,0.2,0,0.2,0v7.8C13.1,17,12.7,17.4,12.5,17.7z M23.5,11.2c-0.4,0.9-0.9,1.6-1.5,2.3c-0.2,0.3-0.5,0.5-0.7,0.8l-0.1,0.1
			c-0.2,0.2-0.5,0.5-0.9,0.8C20.2,15,19.9,15,19.6,15c-0.2-0.7-0.4-1.3-0.5-2c-0.2,0.5-0.4,1.2-0.5,1.7c-0.2,0.6-0.4,1.3-0.6,2
			c-0.7,0.4-1.3,0.7-2.1,1c-0.3-0.3-0.7-0.5-0.9-0.9V3.5c1.1,0.1,2.1,0.2,3.2,0.3c0,0.6,0,3,0,4.8c0,0.9,0,1.6,0,1.9
			c0.3-1.3,0.6-2.4,1-3.7C19.5,7,19.9,7,20.3,7.1c0.1,0.7,0.2,1.4,0.3,2.1c0.1,0.5,0.2,0.9,0.2,1.3c0.2-0.4,0.6-2.3,0.7-2.8
			c0-0.1,0-0.2,0.1-0.2c0-0.1,0-0.1,0-0.2C21.8,6.4,22,5.5,22,4.8l0,0V4.6c0.6,0.2,1.2,0.4,1.8,0.6c0.4,0.2,0.8,0.3,1.1,0.5
			C24.6,7.9,24.2,9.8,23.5,11.2z"/>
	</g>
</g>
</svg>
