<svg id="Layer_1" data-name="Layer 1" xmlns="http://www.w3.org/2000/svg" viewBox="0 0 158.86 9.51">
  <defs>
    <style>
      .cls-1 {
        fill: #fff;
      }
    </style>
  </defs>
  <title>sw_header_logo</title>
  <g id="SW_WORDMARK" data-name="SW WORDMARK">
    <path class="cls-1" d="M895.23,48.41h2.85a1.85,1.85,0,0,0,.08.58,0.67,0.67,0,0,0,.23.32,0.79,0.79,0,0,0,.39.13,4,4,0,0,0,.54,0h3.5l0.45,0a1.12,1.12,0,0,0,.39-0.1,0.72,0.72,0,0,0,.28-0.24,0.79,0.79,0,0,0,.1-0.43,0.84,0.84,0,0,0-.11-0.47A0.81,0.81,0,0,0,903.4,48a6.49,6.49,0,0,0-1.21-.11c-0.53,0-1.26,0-2.18,0a23,23,0,0,1-2.56-.11,3.55,3.55,0,0,1-1.44-.42,1.4,1.4,0,0,1-.64-0.85,5.71,5.71,0,0,1-.14-1.41,8.27,8.27,0,0,1,.08-1.18,1.76,1.76,0,0,1,.44-0.94,2.51,2.51,0,0,1,1.13-.63A7.67,7.67,0,0,1,899,42h4a7.5,7.5,0,0,1,1.95.2,2.41,2.41,0,0,1,1.08.56,1.7,1.7,0,0,1,.47.87,5.62,5.62,0,0,1,.1,1.12v0.29h-2.85a2.86,2.86,0,0,0,0-.44,0.5,0.5,0,0,0-.17-0.29,0.87,0.87,0,0,0-.42-0.17,3.8,3.8,0,0,0-.77-0.06h-3.16a1.59,1.59,0,0,0-.79.17,0.59,0.59,0,0,0-.29.55,0.89,0.89,0,0,0,.1.47,0.67,0.67,0,0,0,.46.25,6,6,0,0,0,1,.09h1.82c1.1,0,2,0,2.72.08a4.47,4.47,0,0,1,1.67.38,1.67,1.67,0,0,1,.84.9,4.59,4.59,0,0,1,.23,1.61,4.88,4.88,0,0,1-.2,1.51,1.61,1.61,0,0,1-.71.89,3.46,3.46,0,0,1-1.41.42,21.46,21.46,0,0,1-2.32.1h-3.46a10.56,10.56,0,0,1-1.66-.11,3.08,3.08,0,0,1-1.13-.38,1.6,1.6,0,0,1-.64-0.77,3.19,3.19,0,0,1-.21-1.25V48.41Z" transform="translate(-895.23 -42.05)"/>
    <polygon class="cls-1" points="13.02 0.1 23.89 0.1 23.89 2.41 19.88 2.41 19.88 9.4 17.03 9.4 17.03 2.41 13.02 2.41 13.02 0.1"/>
    <path class="cls-1" d="M923.38,42.15h3.71l5.11,9.3H929l-0.88-1.64h-5.78l-0.83,1.64h-3.18Zm0.05,5.65h3.65l-1.85-3.5Z" transform="translate(-895.23 -42.05)"/>
    <path class="cls-1" d="M934.25,42.15h8.61a4.05,4.05,0,0,1,1.36.2,1.93,1.93,0,0,1,1.3,1.43,4.62,4.62,0,0,1,.13,1.14V45.5a5,5,0,0,1-.07.84,1.76,1.76,0,0,1-.24.65,1.5,1.5,0,0,1-.49.48,2.63,2.63,0,0,1-.8.31v0a4.09,4.09,0,0,1,.6.18,1.3,1.3,0,0,1,.5.34,1.59,1.59,0,0,1,.33.6,3,3,0,0,1,.12.94v1.58h-2.85V50.33a1.55,1.55,0,0,0-.25-1,1.18,1.18,0,0,0-.92-0.29H937.1v2.42h-2.85v-9.3Zm2.85,4.57h4.71a1.14,1.14,0,0,0,.82-0.24,1,1,0,0,0,.24-0.74V45.44a0.85,0.85,0,0,0-.32-0.8,2.12,2.12,0,0,0-1-.18H937.1v2.26Z" transform="translate(-895.23 -42.05)"/>
    <polygon class="cls-1" points="52.95 0.1 55.8 0.1 55.8 3.52 57.14 3.52 60.74 0.1 64.62 0.1 59.58 4.65 65.21 9.4 61.18 9.4 57.07 5.83 55.8 5.83 55.8 9.4 52.95 9.4 52.95 0.1"/>
    <path class="cls-1" d="M967.27,48.2a4.55,4.55,0,0,1,.1-0.93,1.21,1.21,0,0,1,.93-1,3.55,3.55,0,0,1,1-.13v0a3.34,3.34,0,0,1-.53-0.39,1.26,1.26,0,0,1-.29-0.39,1.5,1.5,0,0,1-.12-0.49c0-.19,0-0.42,0-0.69a4.2,4.2,0,0,1,.11-1.09,1.14,1.14,0,0,1,.47-0.65,2.42,2.42,0,0,1,1-.32,15.32,15.32,0,0,1,1.75-.08h2.21a14.89,14.89,0,0,1,2,.1,2.5,2.5,0,0,1,1.15.38,1.36,1.36,0,0,1,.55.79,5.71,5.71,0,0,1,.13,1.33v0.51h-2.47V44.72a0.61,0.61,0,0,0-.28-0.56,1.91,1.91,0,0,0-1-.19h-2a2,2,0,0,0-.81.11,0.47,0.47,0,0,0-.2.45,1.33,1.33,0,0,0,0,.24,0.44,0.44,0,0,0,.08.18,1,1,0,0,0,.18.16l0.33,0.19,4.64,2.39V46.46h2.31v1.31a4.27,4.27,0,0,1,0,.63c0,0.15,0,.29-0.07.44l1.66,0.86-0.79,1.75-1.63-.85a1.61,1.61,0,0,1-.56.52,3,3,0,0,1-.75.29,4.76,4.76,0,0,1-.87.12l-0.91,0h-3.84a8.08,8.08,0,0,1-1.42-.12,2.85,2.85,0,0,1-1.09-.42,2,2,0,0,1-.7-0.81,2.93,2.93,0,0,1-.24-1.29V48.2Zm8,1.35a0.07,0.07,0,0,0,.07-0.08L971,47.23a1,1,0,0,0-.43-0.06,1.26,1.26,0,0,0-.29,0,0.46,0.46,0,0,0-.24.16,0.72,0.72,0,0,0-.17.35,2.66,2.66,0,0,0-.06.63,1.68,1.68,0,0,0,.09.61,0.8,0.8,0,0,0,.27.36,1,1,0,0,0,.43.19,3.53,3.53,0,0,0,.63.05h4.08Z" transform="translate(-895.23 -42.05)"/>
    <polygon class="cls-1" points="90.71 0.1 93.5 0.1 95.47 6.93 95.49 6.93 97.86 0.1 100.5 0.1 102.87 6.93 102.9 6.93 104.87 0.1 107.66 0.1 104.64 9.4 101.37 9.4 99.2 3.26 99.17 3.26 97 9.4 93.72 9.4 90.71 0.1"/>
    <path class="cls-1" d="M1007.22,42.15h3.71l5.11,9.3h-3.17L1012,49.8h-5.78l-0.84,1.64h-3.18Zm0.05,5.65h3.65l-1.85-3.5Z" transform="translate(-895.23 -42.05)"/>
    <polygon class="cls-1" points="124.09 6.17 118.94 0.1 122.39 0.1 125.52 3.9 128.65 0.1 132.1 0.1 126.94 6.17 126.94 9.4 124.09 9.4 124.09 6.17"/>
    <polygon class="cls-1" points="133.15 0.1 137.57 0.1 142.93 6.86 142.95 6.86 142.95 0.1 145.8 0.1 145.8 9.4 141.38 9.4 136.03 2.64 136 2.64 136 9.4 133.15 9.4 133.15 0.1"/>
    <polygon class="cls-1" points="148.53 0.1 158.69 0.1 158.69 2.26 151.38 2.26 151.38 3.75 158.31 3.75 158.31 5.68 151.38 5.68 151.38 7.16 158.86 7.16 158.86 9.4 148.53 9.4 148.53 0.1"/>
  </g>
</svg>
