<svg id="Layer_1" data-name="Layer 1" xmlns="http://www.w3.org/2000/svg" width="183.11" height="169.69" viewBox="0 0 183.11 169.69"><defs><style>.cls-1{fill:#aee0ee;}.cls-2{fill:#fff;}.cls-3{fill:none;stroke:#69a5d1;stroke-linecap:round;stroke-linejoin:round;stroke-width:2px;}.cls-4{fill:#69a5d1;}</style></defs><title>oss_sheild_icon</title><g id="Panel_OPEN_SOURCE" data-name="Panel OPEN SOURCE"><g id="layout2"><path class="cls-1" d="M237,4325.09l-0.93-5a3.6,3.6,0,0,0-3.54-2.95H192.32a3.6,3.6,0,0,0-3.54,2.95l-0.93,5a3.6,3.6,0,0,1-3.54,2.95H173.53a3.6,3.6,0,0,0-3.6,3.6v134.57a3.6,3.6,0,0,0,3.6,3.6h175.9a3.6,3.6,0,0,0,3.6-3.6V4331.65a3.6,3.6,0,0,0-3.6-3.6H240.51A3.6,3.6,0,0,1,237,4325.09Z" transform="translate(-169.93 -4302.49)"/><polygon class="cls-2" points="146.85 50.94 146.85 16.25 133.85 16.25 133.85 50.94 124.14 50.94 140.35 79 156.55 50.94 146.85 50.94"/><polygon class="cls-2" points="71.38 135.01 71.38 169.69 84.38 169.69 84.38 135.01 94.08 135.01 77.88 106.94 61.67 135.01 71.38 135.01"/><circle class="cls-2" cx="133.61" cy="115.36" r="23.75"/><circle class="cls-3" cx="97.94" cy="84.74" r="83.74"/><path class="cls-4" d="M247.86,4338.85a53.5,53.5,0,0,1,22.91,5.35,40.5,40.5,0,0,1,7.15,4.29c0,9.12-1.34,17.63-3.66,24a44.15,44.15,0,0,1-12,17.92,47.44,47.44,0,0,1-14.5,8.75,47.39,47.39,0,0,1-14.5-8.75,44.08,44.08,0,0,1-12-17.92c-2.33-6.38-3.63-14.88-3.67-24a40.53,40.53,0,0,1,7.15-4.29,53.5,53.5,0,0,1,22.91-5.35h0.11m-30.17,8.74h0M247.86,4337h-0.11a55.34,55.34,0,0,0-23.72,5.53,39.33,39.33,0,0,0-7.86,4.8l-0.35.29c0,0.17,0,.34,0,0.51,0,9.05,1.26,18.13,3.78,25a46,46,0,0,0,12.46,18.67,49.66,49.66,0,0,0,15.73,9.35h0a49.71,49.71,0,0,0,15.73-9.35A46.08,46.08,0,0,0,276,4373.14c2.52-6.89,3.77-16,3.78-25,0-.17,0-0.34,0-0.51l-0.35-.29a39.09,39.09,0,0,0-7.86-4.8,55.34,55.34,0,0,0-23.72-5.53h0Z" transform="translate(-169.93 -4302.49)"/><rect class="cls-3" x="67.68" y="58.61" width="20.39" height="20.39"/><path class="cls-3" d="M253.33,4361.1v-5.52a5.52,5.52,0,0,0-5.52-5.52h0a5.52,5.52,0,0,0-5.52,5.52v5.52" transform="translate(-169.93 -4302.49)"/><path class="cls-3" d="M299.75,4394.1A23.75,23.75,0,1,1,276,4417.84" transform="translate(-169.93 -4302.49)"/><polygon class="cls-4" points="131.28 96.6 122.65 91.61 131.28 86.62 131.28 96.6"/><polyline class="cls-3" points="129.82 104.75 129.82 116.99 112.1 98.08"/></g></g></svg>