<svg id="Layer_1" data-name="Layer 1" xmlns="http://www.w3.org/2000/svg" width="183.11" height="169.48" viewBox="0 0 183.11 169.48"><defs><style>.cls-1{fill:#aee0ee;}.cls-2{fill:none;stroke:#69a5d1;stroke-linecap:round;stroke-linejoin:round;stroke-width:2px;}.cls-3{fill:#fff;}.cls-4{fill:#69a5d1;}</style></defs><title>oss_boshgen_icon</title><g id="Panel_OPEN_SOURCE" data-name="Panel OPEN SOURCE"><g id="layout2"><path class="cls-1" d="M237,4791.21l-0.93-5a3.6,3.6,0,0,0-3.54-2.95H192.32a3.6,3.6,0,0,0-3.54,2.95l-0.93,5a3.6,3.6,0,0,1-3.54,2.95H173.53a3.6,3.6,0,0,0-3.6,3.6v134.57a3.6,3.6,0,0,0,3.6,3.6h175.9a3.6,3.6,0,0,0,3.6-3.6V4797.76a3.6,3.6,0,0,0-3.6-3.6H240.51A3.6,3.6,0,0,1,237,4791.21Z" transform="translate(-169.93 -4774.85)"/><circle class="cls-2" cx="97.94" cy="84.74" r="83.74"/><circle class="cls-3" cx="286.12" cy="4850.59" r="5.58" transform="translate(-571.16 -4734.42) rotate(-4.76)"/><path class="cls-3" d="M293.08,4856.08a11.86,11.86,0,0,1-4.36,3v0a50.62,50.62,0,0,0,5.86,13.76,21.35,21.35,0,0,1-7.37,2.33l-0.36,0-0.43,0-0.87.07c-0.53,0-1.06,0-1.61,0a22.21,22.21,0,0,1-6.46-1.1,21.53,21.53,0,0,1-2.85-1.14,22.82,22.82,0,0,1-2.42-1.35,21.74,21.74,0,0,1-1.92-1.37c-0.57-.43-1-0.86-1.39-1.19-0.73-.7-1.14-1.13-1.14-1.13s0.34,0.47,1,1.28c0.34,0.39.73,0.88,1.24,1.39a22.29,22.29,0,0,0,1.76,1.67,23.82,23.82,0,0,0,2.31,1.73,23,23,0,0,0,2.83,1.61,24.58,24.58,0,0,0,3.26,1.3,24.92,24.92,0,0,0,3.56.84c0.6,0.12,1.25.16,1.88,0.23l0.87,0.05,0.43,0h0.5A25,25,0,0,0,291,4878a25.39,25.39,0,0,0,6-1.58q1.1,1.49,2.3,2.9l-0.11.07-1,.59-0.13.08,0,0h0l0.17-.08h0l-0.07,0-0.29.15-0.61.31-0.32.16-0.17.08-0.08,0h0l0.11,0,0,0-0.71.31-0.75.33-0.1,0h0l0.07,0h0l0,0-0.2.08-0.4.16a29.31,29.31,0,0,1-11.5,1.94l-0.51,0-0.58,0-1.16-.09c-0.72-.11-1.43-0.16-2.17-0.32a30,30,0,0,1-8.35-2.83c-0.64-.32-1.25-0.65-1.84-1s-1.15-.72-1.7-1.09a30.62,30.62,0,0,1-2.92-2.29,29.07,29.07,0,0,1-2.25-2.21c-0.66-.68-1.15-1.34-1.59-1.86s-0.72-1-.94-1.27l-0.33-.45,0.28,0.48c0.19,0.31.44,0.79,0.81,1.36s0.81,1.28,1.4,2a29.7,29.7,0,0,0,2.05,2.48,31.61,31.61,0,0,0,2.76,2.66c0.52,0.44,1.06.9,1.64,1.31s1.18,0.86,1.81,1.26a32.47,32.47,0,0,0,4.06,2.23,32.83,32.83,0,0,0,4.51,1.68c0.77,0.25,1.6.4,2.4,0.61l1.14,0.21,0.57,0.1,0.64,0.09a32.85,32.85,0,0,0,4.72.29,33.32,33.32,0,0,0,8.39-1.17l0.42-.12,0.21-.06,0.29-.09,0.78-.25,0.74-.24,0.8-.31,0.64-.25,0.3-.12,0.07,0h0l0.2-.1,0,0,0.14-.07,1-.49,1.27-.62c0.86,0.83,1.75,1.63,2.67,2.39,0,0,4.39,4.52,6.81,2.66s-0.35-7.23-.35-7.23A50.8,50.8,0,0,0,293.08,4856.08Z" transform="translate(-169.93 -4774.85)"/><path class="cls-3" d="M277.76,4848.64l0,0a50.62,50.62,0,0,0-14.68-2.07,21.33,21.33,0,0,1,1.95-7.81l0.15-.33,0.2-.39,0.4-.77c0.28-.45.52-0.92,0.84-1.38A22.21,22.21,0,0,1,271,4831a21.53,21.53,0,0,1,2.48-1.81,22.85,22.85,0,0,1,2.43-1.34,21.72,21.72,0,0,1,2.18-.9c0.66-.25,1.26-0.4,1.75-0.55,1-.25,1.56-0.37,1.56-0.37s-0.58,0-1.6.15c-0.51.08-1.13,0.15-1.83,0.31a22.35,22.35,0,0,0-2.35.61,23.84,23.84,0,0,0-2.7,1,22.94,22.94,0,0,0-2.86,1.55,24.56,24.56,0,0,0-2.83,2.08,24.92,24.92,0,0,0-2.6,2.57c-0.42.45-.79,1-1.19,1.47l-0.51.71-0.25.35-0.27.42a25,25,0,0,0-1.72,3.18,25.43,25.43,0,0,0-1.88,6.21v0.09q-1.82.17-3.62,0.46v-2l0,0.19v-0.1l0-.33,0.06-.69,0-.36,0-.18v-0.12h0l0,0.11v0l0.11-.77,0.12-.81,0-.1h0l0,0.08V4842l0-.21,0.08-.43a29.31,29.31,0,0,1,4.45-10.78l0.29-.42,0.34-.46,0.69-.93c0.48-.55.9-1.13,1.42-1.67a30,30,0,0,1,6.82-5.59c0.61-.37,1.22-0.72,1.84-1s1.22-.59,1.82-0.86a30.63,30.63,0,0,1,3.49-1.26,29.06,29.06,0,0,1,3.07-.73c0.92-.2,1.74-0.27,2.42-0.36s1.21-.09,1.57-0.12l0.56,0-0.56,0c-0.36,0-.9,0-1.58,0s-1.52,0-2.47.11a29.7,29.7,0,0,0-3.19.43,31.63,31.63,0,0,0-3.71.93c-0.65.21-1.32,0.42-2,.7s-1.35.54-2,.87a32.45,32.45,0,0,0-4,2.26,32.85,32.85,0,0,0-3.81,2.94c-0.62.52-1.19,1.14-1.78,1.71l-0.78.86-0.39.43-0.41.49a32.83,32.83,0,0,0-2.75,3.85,33.31,33.31,0,0,0-3.45,7.74l-0.12.42-0.06.2-0.07.29-0.2.79-0.19.75-0.16.85-0.13.68-0.06.32,0,0.08v0l0,0.22v0l0,0.15-0.12,1.12-0.21,2c-1.17.32-2.33,0.67-3.48,1.07,0,0-6.14,1.43-5.79,4.47,0.33,2.85,6.38,3.43,6.38,3.43a50.8,50.8,0,0,0,30.94-3.34A11.85,11.85,0,0,1,277.76,4848.64Z" transform="translate(-169.93 -4774.85)"/><path class="cls-3" d="M321,4845.35a32.86,32.86,0,0,0-.76-4.75c-0.16-.79-0.43-1.59-0.65-2.39l-0.38-1.1-0.19-.55-0.23-.6a32.82,32.82,0,0,0-2.06-4.26,33.32,33.32,0,0,0-5.14-6.73l-0.31-.31-0.15-.15-0.22-.2-0.6-.56-0.57-.53-0.67-.55-0.53-.44-0.25-.21-0.06-.05h0l-0.18-.12,0,0-0.13-.09-0.93-.64-1.25-.86q0.48-1.92.82-3.88c0.33-2,1.71-6.07-1.11-7.23-2.65-1.09-6.08,3.92-6.08,3.92a50.8,50.8,0,0,0-12,28.7,11.86,11.86,0,0,1,4.81,2.25h0a50.62,50.62,0,0,0,8.73-11.52,21.32,21.32,0,0,1,5.8,5.36l0.22,0.29,0.24,0.36,0.48,0.72c0.26,0.46.56,0.9,0.81,1.4a22.2,22.2,0,0,1,2.21,6.17,21.57,21.57,0,0,1,.41,3,22.87,22.87,0,0,1,0,2.77,21.76,21.76,0,0,1-.25,2.35c-0.09.7-.25,1.3-0.35,1.8-0.25,1-.43,1.55-0.43,1.55s0.25-.53.63-1.48c0.17-.48.41-1.06,0.6-1.76a22.3,22.3,0,0,0,.58-2.35,23.81,23.81,0,0,0,.37-2.87,23,23,0,0,0,0-3.25,24.56,24.56,0,0,0-.47-3.48,24.89,24.89,0,0,0-1-3.51c-0.19-.58-0.48-1.16-0.72-1.75l-0.38-.78-0.19-.39-0.24-.44a25.07,25.07,0,0,0-2-3,25.43,25.43,0,0,0-4.45-4.54q0.78-1.73,1.42-3.52l0.19,0.1,1,0.54,0.14,0.08,0,0h0l-0.16-.11h0l0.07,0,0.27,0.18,0.57,0.38,0.3,0.2,0.15,0.1,0.08,0.05h0l-0.09-.07,0,0,0.62,0.47,0.66,0.49,0.08,0.06h0l-0.06-.05,0,0,0,0,0.17,0.13,0.34,0.27a29.31,29.31,0,0,1,7.34,9.06l0.23,0.45,0.24,0.52,0.49,1.05c0.25,0.68.56,1.33,0.78,2a30,30,0,0,1,1.64,8.67c0,0.71,0,1.41,0,2.1s-0.06,1.36-.12,2a30.62,30.62,0,0,1-.56,3.67,29,29,0,0,1-.82,3c-0.27.91-.6,1.66-0.84,2.3s-0.5,1.11-.65,1.44l-0.23.51,0.28-.48c0.18-.32.47-0.77,0.79-1.37s0.72-1.34,1.08-2.22a29.66,29.66,0,0,0,1.15-3,31.61,31.61,0,0,0,1-3.71c0.12-.67.26-1.36,0.33-2.07s0.17-1.44.21-2.19A32.48,32.48,0,0,0,321,4845.35Z" transform="translate(-169.93 -4774.85)"/><line class="cls-2" x1="64.15" y1="90.68" x2="151.09" y2="90.68"/><line class="cls-2" x1="64.15" y1="105.07" x2="151.09" y2="105.07"/><line class="cls-2" x1="64.15" y1="119.46" x2="151.09" y2="119.46"/><line class="cls-2" x1="96.14" y1="133.25" x2="151.09" y2="133.25"/><circle class="cls-2" cx="52.16" cy="90.68" r="2.3"/><circle class="cls-2" cx="52.16" cy="105.07" r="2.3"/><circle class="cls-2" cx="52.16" cy="119.46" r="2.3"/><circle class="cls-4" cx="86.74" cy="133.25" r="2.3"/></g></g></svg>