<svg id="Layer_1" data-name="Layer 1" xmlns="http://www.w3.org/2000/svg" width="1019.17" height="229.02" viewBox="0 0 1019.17 229.02"><defs><style>.cls-1,.cls-3{fill:#231f20;}.cls-2,.cls-4{fill:#fff;}.cls-3,.cls-4{fill-rule:evenodd;}</style></defs><title>client_logos</title><g id="Panel_CLIENTS" data-name="Panel CLIENTS"><path class="cls-1" d="M281.37,1006.45v0a5,5,0,0,1-3.94,2.12,3.43,3.43,0,0,1-3.6-3.3c0-1.64.7-2.62,2.78-3.87a0.33,0.33,0,0,1,.41,0l4.33,4.54a0.34,0.34,0,0,1,.12.24h0A0.35,0.35,0,0,1,281.37,1006.45Zm-3-14.57a2,2,0,0,1,2.13,2.12c0,1.37-1.22,2.16-2.68,3l-0.07,0a0.3,0.3,0,0,1-.36-0.06l0,0a4.88,4.88,0,0,1-1.39-2.61A2.34,2.34,0,0,1,278.41,991.88Zm11.69,18.35L286,1006a0.35,0.35,0,0,1-.06-0.46l3.15-5.31a0.66,0.66,0,0,0,.08-0.3,0.61,0.61,0,0,0-.61-0.61h-2.31a0.63,0.63,0,0,0-.55.31l-2,3.45a0.31,0.31,0,0,1-.43.07L280,999.8a0.3,0.3,0,0,1-.07-0.2,0.31,0.31,0,0,1,.1-0.23l0,0c1.82-1.06,3.9-2.62,3.9-5.37,0-3.15-2.26-5.27-5.63-5.27s-5.81,2.21-5.81,5.51a7,7,0,0,0,1.85,4.42l0,0a0.3,0.3,0,0,1,.06.23,0.32,0.32,0,0,1-.12.21c-2.75,1.56-4.13,3.63-4.13,6.16,0,4.29,3.59,6.54,7.14,6.54a7.7,7.7,0,0,0,6.16-3l0,0a0.32,0.32,0,0,1,.44,0l2.22,2.3,0.06,0.06a0.63,0.63,0,0,0,.43.18h2.93a0.61,0.61,0,0,0,.61-0.61,0.63,0.63,0,0,0-.17-0.42h0Z" transform="translate(-144 -960.2)"/><path class="cls-1" d="M267.51,1008.54h-0.13c-3.31,0-5-1.76-5-5.22V993.11a0.32,0.32,0,0,1,.33-0.32h5.19a0.62,0.62,0,0,0,.62-0.62v-2.27a0.62,0.62,0,0,0-.62-0.62h-5.18a0.34,0.34,0,0,1-.34-0.34v-4.69a0.62,0.62,0,0,0-.59-0.64h-0.07l-2.66.21a0.62,0.62,0,0,0-.61.62V989a0.32,0.32,0,0,1-.33.32h-3.26a0.62,0.62,0,0,0-.62.62v2.28a0.62,0.62,0,0,0,.19.43,0.63,0.63,0,0,0,.44.17h3.25a0.32,0.32,0,0,1,.33.32V1004c0,5.85,4.4,7.93,8.26,7.93,0,0,.45,0,0.8,0a0.63,0.63,0,0,0,.61-0.62v-2.14A0.62,0.62,0,0,0,267.51,1008.54Z" transform="translate(-144 -960.2)"/><path class="cls-1" d="M248.63,1001.94c-0.53,3.72-2.36,5.87-5.74,6.43-2.38.39-4.54-.59-4.66-3.14-0.13-2.8,3.13-5.16,9.14-4.9,0,0,.44,0,0.74.06a0.65,0.65,0,0,1,.53.27A2.19,2.19,0,0,1,248.63,1001.94Zm4,8.44a5.87,5.87,0,0,1-.29-1.53c0-.21,0-1.07,0-1.07V997c0-5.69-4-7.72-7.8-7.72a13.91,13.91,0,0,0-7.46,2,0.64,0.64,0,0,0-.27.39,0.6,0.6,0,0,0,.09.45l1.39,1.88a0.61,0.61,0,0,0,.85.13l0.19-.12a8.82,8.82,0,0,1,4.63-1.34c4.65,0,4.52,3.64,4.52,4.12a0.27,0.27,0,0,1-.32.3l-0.72,0c-3.61-.13-12.77,1.1-12.77,8.36,0,4.27,3.56,6.44,6.87,6.44a9.26,9.26,0,0,0,7.09-2.83l0,0a0.09,0.09,0,0,1,.07,0,0.08,0.08,0,0,1,.08.08,9.68,9.68,0,0,0,0,1,4,4,0,0,0,.14.81,0.72,0.72,0,0,0,.33.42,0.68,0.68,0,0,0,.26.07h2.58a0.61,0.61,0,0,0,.61-0.6A2,2,0,0,0,252.64,1010.38Z" transform="translate(-144 -960.2)"/><path class="cls-1" d="M302.5,1008.54h-0.13c-3.32,0-5-1.76-5-5.22V993.11a0.32,0.32,0,0,1,.32-0.32h5.2a0.62,0.62,0,0,0,.62-0.62v-2.27a0.62,0.62,0,0,0-.62-0.62h-5.18a0.34,0.34,0,0,1-.34-0.34v-4.69a0.62,0.62,0,0,0-.59-0.64h-0.07l-2.66.21a0.62,0.62,0,0,0-.61.62V989a0.32,0.32,0,0,1-.32.32h-3.26a0.62,0.62,0,0,0-.62.62v2.28a0.62,0.62,0,0,0,.64.61h3.25a0.32,0.32,0,0,1,.32.32V1004c0,5.85,4.4,7.93,8.26,7.93,0,0,.46,0,0.81,0a0.63,0.63,0,0,0,.61-0.62v-2.14A0.62,0.62,0,0,0,302.5,1008.54Z" transform="translate(-144 -960.2)"/><path class="cls-1" d="M171.63,974.05c0.23,3.27,8.91,5.85,19.37,5.58s18.48-3.27,18.48-6.55c0-.94-0.7-1.78-1.94-2.5a32.7,32.7,0,0,0-33.71.38C172.34,971.9,171.56,973,171.63,974.05ZM181,990.25c3.44,0.44,12.55,1.68,19.61,1.1C214.83,990.17,218,985.2,218,982a6.46,6.46,0,0,0-1-2.93,33.07,33.07,0,0,0-4.26-4.62,2.24,2.24,0,0,1,.56,1.34c0.13,2.2-3.47,5.15-10.74,7.57a56.26,56.26,0,0,1-18,3c-12.55,0-16.89-4.76-16.89-7.74,0-.31-0.06-2.86,2.85-5.28a32.8,32.8,0,0,0-6.86,7.52,2.28,2.28,0,0,0-.32,1.19C163.39,985,170.83,989,181,990.25Zm-10.67,21.88c7.06,2.89,18.28,5.08,24.65,4.85,23-.82,28.08-12.43,28.61-15.81,0.06-.79.09-1.6,0.09-2.4a32.75,32.75,0,0,0-.93-7.75,12.82,12.82,0,0,1,.31,2.65c0,1.12.22,11.16-22.71,16.27-13.74,3.06-19.54,3-29,0-8.27-2.61-12.79-8.67-12.91-13.87-0.07.89-.11,1.8-0.11,2.71,0,0.74,0,1.48.07,2.21C159,1005.28,164.62,1009.8,170.31,1012.12Zm19.28,16c-5,0-15.8-.8-22.84-7.42a32.68,32.68,0,0,0,53.12-6.61C218.16,1017,210.65,1028.08,189.59,1028.08Zm0.71-6.58c-4.13.46-28.07,1.54-31.56-17.47a32.38,32.38,0,0,0,2.67,8.61c1.5,2.71,5.24,6.43,10.65,8.66,28.09,11.6,45.37-2.2,48.7-9.07a32.49,32.49,0,0,0,2.66-9.48C223,1005.3,220.43,1018.16,190.3,1021.51Zm-30.77-31.6a32.52,32.52,0,0,1,2-5.38,7.87,7.87,0,0,0-.58,3.26c0,8,17.21,15.81,38.31,10.05,8.22-2.24,20.51-6.56,20.51-13.16,0-.33.14-1.08-1-3a32.55,32.55,0,0,1,3.27,7.16,7.92,7.92,0,0,1,.33,2.62c0,1.62-2,11.53-21.81,13.33a97.67,97.67,0,0,1-25.22-2.42c-7.27-1.84-14.57-5.4-16-10.33A4,4,0,0,1,159.53,989.91Z" transform="translate(-144 -960.2)"/><path class="cls-1" d="M379.63,1023.52l10.71-14.16H380.22v-3.79h15.34V1009l-10.71,13.91h10.71v4H379.63v-3.41Z" transform="translate(-144 -960.2)"/><path class="cls-1" d="M400.52,1005.56h4.3v21.37h-4.3v-21.37Zm0-8.64h4.3v4.3h-4.3v-4.3Z" transform="translate(-144 -960.2)"/><path class="cls-1" d="M419.68,1022.89c-4,0-4.22-3.54-4.22-6.62s0.21-6.66,4.22-6.66,4.26,3.33,4.26,6.66S423.73,1022.89,419.68,1022.89Zm-8.52,12.69h4.3v-10.92a7.87,7.87,0,0,0,5.52,2.53,7,7,0,0,0,5.73-2.78c1.18-1.52,1.52-2.91,1.52-8.14s-0.34-6.66-1.52-8.18a7,7,0,0,0-5.73-2.78,7.54,7.54,0,0,0-5.52,2.49v-2.23h-4.3v30Z" transform="translate(-144 -960.2)"/><path class="cls-1" d="M449.42,1023.48a10,10,0,0,1-7.67,3.71c-4.93,0-9.7-3.12-9.7-10.92s4.76-11,9.7-11a10,10,0,0,1,7.67,3.71l-3.16,2.82a5.61,5.61,0,0,0-4.34-2.23c-3.5,0-5.56,2-5.56,6.66s2.07,6.62,5.56,6.62a5.61,5.61,0,0,0,4.34-2.23Z" transform="translate(-144 -960.2)"/><path class="cls-1" d="M464.28,1019.43c0,3.33-1.22,3.71-4.81,3.71-2.91,0-4-1.26-4-2.7s1.18-2.57,3.71-2.57h5.14v1.56Zm0,7.5h4.3v-14.59c0-5.27-3.62-7-8.89-7-3.2,0-5.56.84-7.21,3.12l3.37,2.57c0.76-1.22,1.81-1.64,4-1.64,3.08,0,4.38.72,4.38,2.74v2.23h-5.94c-4.59,0-7,2.91-7,6.32,0,3.71,2.78,6.53,7.55,6.53,2.91,0,4.38-.67,5.27-2.15h0.08v1.9Z" transform="translate(-144 -960.2)"/><path class="cls-1" d="M474.15,1005.56h4.3v2.28h0.08a6.85,6.85,0,0,1,5.56-2.53,7.11,7.11,0,0,1,4.47,1.64l-3.12,3.71a4.22,4.22,0,0,0-2.82-1.05c-2.11,0-4.17,1.35-4.17,4.47v12.86h-4.3v-21.37Z" transform="translate(-144 -960.2)"/><path class="cls-1" d="M487.72,1025.57a1.5,1.5,0,1,1-1.5-1.5A1.5,1.5,0,0,1,487.72,1025.57Zm-3.32,0a1.82,1.82,0,1,0,1.82-1.82A1.82,1.82,0,0,0,484.4,1025.57Zm2.32,1h0.39l-0.6-.92a0.54,0.54,0,0,0,.54-0.57,0.59,0.59,0,0,0-.74-0.6h-0.79v2.09h0.32v-0.91h0.33Zm-0.88-1.17v-0.66h0.43c0.32,0,.47.1,0.47,0.33s-0.15.33-.47,0.33h-0.43Z" transform="translate(-144 -960.2)"/><circle class="cls-1" cx="360.38" cy="22.89" r="22.16"/><path class="cls-2" d="M525.48,991.16q0.17-.47.33-1H507.24l0.91-1.16H521a0.47,0.47,0,1,0,0-.93H508.88l0.89-1.14h6.55a0.48,0.48,0,0,0,0-1H498.94l10.65-13.87H492.07v3.79h9.33l-9.77,12.67-2,2.55h7.76a4.44,4.44,0,0,1,8.23,0h19.89Z" transform="translate(-144 -960.2)"/><circle class="cls-2" cx="357.48" cy="32.67" r="3.42"/><path class="cls-1" d="M420.4,1032.55h0.35l0.65,2.4h0l0.68-2.4h0.34l0.67,2.4h0l0.67-2.4h0.36l-0.87,3h-0.34l-0.67-2.4h0l-0.67,2.4h-0.36Z" transform="translate(-144 -960.2)"/><path class="cls-1" d="M424.68,1035.53v-4.14H425V1033a1.33,1.33,0,0,1,1-.53,0.83,0.83,0,0,1,.88,1v2h-0.34v-2c0-.49-0.15-0.76-0.61-0.76a1.45,1.45,0,0,0-1,.57v2.2h-0.34Z" transform="translate(-144 -960.2)"/><path class="cls-1" d="M428,1033.78a1,1,0,0,1,.87-1,0.93,0.93,0,0,1,.86,1H428Zm2.08,0.28c0-.92-0.38-1.56-1.19-1.56a1.33,1.33,0,0,0-1.23,1.55,1.28,1.28,0,0,0,1.27,1.55,1.22,1.22,0,0,0,1.18-.73l-0.28-.15a0.93,0.93,0,0,1-.87.6,1.06,1.06,0,0,1-1-1.26h2.08Z" transform="translate(-144 -960.2)"/><path class="cls-1" d="M430.88,1033.78a1,1,0,0,1,.87-1,0.93,0.93,0,0,1,.86,1h-1.73Zm2.08,0.28c0-.92-0.38-1.56-1.19-1.56a1.33,1.33,0,0,0-1.23,1.55,1.28,1.28,0,0,0,1.27,1.55,1.22,1.22,0,0,0,1.18-.73l-0.28-.15a0.93,0.93,0,0,1-.87.6,1.06,1.06,0,0,1-1-1.26H433Z" transform="translate(-144 -960.2)"/><path class="cls-1" d="M433.69,1031.39H434v4.14h-0.34v-4.14Z" transform="translate(-144 -960.2)"/><path class="cls-1" d="M434.92,1034.81a1,1,0,0,0,.92.51,0.61,0.61,0,0,0,.67-0.57c0-.87-1.76-0.38-1.76-1.44a0.83,0.83,0,0,1,.95-0.82,1.1,1.1,0,0,1,1,.54l-0.26.18a0.9,0.9,0,0,0-.77-0.45,0.51,0.51,0,0,0-.59.52c0,0.73,1.76.3,1.76,1.46a0.93,0.93,0,0,1-1,.84,1.33,1.33,0,0,1-1.15-.6Z" transform="translate(-144 -960.2)"/><path class="cls-1" d="M438.76,1032.55h0.35l0.65,2.4h0l0.68-2.4h0.34l0.67,2.4h0l0.67-2.4h0.36l-0.87,3H441.3l-0.67-2.4h0l-0.67,2.4H439.6Z" transform="translate(-144 -960.2)"/><path class="cls-1" d="M443,1035.53v-4.14h0.34V1033a1.33,1.33,0,0,1,1-.53,0.83,0.83,0,0,1,.88,1v2H445v-2c0-.49-0.15-0.76-0.61-0.76a1.45,1.45,0,0,0-1,.57v2.2H443Z" transform="translate(-144 -960.2)"/><path class="cls-1" d="M446.35,1033.78a1,1,0,0,1,.87-1,0.93,0.93,0,0,1,.86,1h-1.73Zm2.08,0.28c0-.92-0.38-1.56-1.19-1.56A1.33,1.33,0,0,0,446,1034a1.28,1.28,0,0,0,1.27,1.55,1.22,1.22,0,0,0,1.18-.73l-0.28-.15a0.93,0.93,0,0,1-.87.6,1.06,1.06,0,0,1-1-1.26h2.08Z" transform="translate(-144 -960.2)"/><path class="cls-1" d="M449.16,1035.53v-3h0.34V1033a1.33,1.33,0,0,1,1-.53,0.83,0.83,0,0,1,.88,1v2h-0.34v-2c0-.49-0.15-0.76-0.61-0.76a1.45,1.45,0,0,0-1,.57v2.2h-0.34Z" transform="translate(-144 -960.2)"/><path class="cls-1" d="M454.8,1035h0l0.83-2.43H456l-1.11,3.2a0.93,0.93,0,0,1-1,.84,1.13,1.13,0,0,1-.32,0v-0.28a2.7,2.7,0,0,0,.34,0,0.87,0.87,0,0,0,.67-0.83l-1-2.94H454Z" transform="translate(-144 -960.2)"/><path class="cls-1" d="M457.55,1032.77c0.61,0,.88.46,0.88,1.27s-0.27,1.27-.88,1.27-0.88-.46-0.88-1.27S456.93,1032.77,457.55,1032.77Zm0-.28a1.59,1.59,0,1,0,1.23,1.55A1.29,1.29,0,0,0,457.55,1032.49Z" transform="translate(-144 -960.2)"/><path class="cls-1" d="M461.73,1032.55v3h-0.34v-0.47a1.33,1.33,0,0,1-1,.53,0.83,0.83,0,0,1-.88-1v-2h0.34v2c0,0.49.15,0.76,0.61,0.76a1.45,1.45,0,0,0,1-.57v-2.2h0.34Z" transform="translate(-144 -960.2)"/><path class="cls-1" d="M463.89,1032.55h0.35l0.65,2.4h0l0.68-2.4h0.34l0.67,2.4h0l0.67-2.4h0.36l-0.87,3h-0.34l-0.67-2.4h0l-0.67,2.4h-0.36Z" transform="translate(-144 -960.2)"/><path class="cls-1" d="M469.75,1034.82a1.54,1.54,0,0,1-1,.49,0.49,0.49,0,0,1-.53-0.51c0-.38.18-0.66,1.55-1v1Zm0.39,0.71a3.29,3.29,0,0,1,0-.54v-1.56a0.84,0.84,0,0,0-1-.94,1.16,1.16,0,0,0-1.11.68l0.23,0.14a1,1,0,0,1,.87-0.54,0.55,0.55,0,0,1,.68.6v0.21c-1.24.28-1.91,0.42-1.91,1.24a0.76,0.76,0,0,0,.82.78,1.56,1.56,0,0,0,1.08-.42l0,0.36h0.33Z" transform="translate(-144 -960.2)"/><path class="cls-1" d="M471.07,1035.53v-3h0.34V1033a1.33,1.33,0,0,1,1-.53,0.83,0.83,0,0,1,.88,1v2H473v-2c0-.49-0.15-0.76-0.61-0.76a1.45,1.45,0,0,0-1,.57v2.2h-0.34Z" transform="translate(-144 -960.2)"/><path class="cls-1" d="M474.32,1032.55v-1h0.34v1h0.65v0.28h-0.65V1035a0.27,0.27,0,0,0,.3.3,1.21,1.21,0,0,0,.35-0.06v0.29a2.45,2.45,0,0,1-.35.05c-0.49,0-.65-0.16-0.65-0.52v-2.24h-0.45v-0.28h0.45Z" transform="translate(-144 -960.2)"/><path class="cls-1" d="M477.57,1032.55v-1h0.34v1h0.65v0.28h-0.65V1035a0.27,0.27,0,0,0,.3.3,1.21,1.21,0,0,0,.35-0.06v0.29a2.44,2.44,0,0,1-.35.05c-0.49,0-.65-0.16-0.65-0.52v-2.24h-0.45v-0.28h0.45Z" transform="translate(-144 -960.2)"/><path class="cls-1" d="M479.16,1035.53v-4.14h0.34V1033a1.33,1.33,0,0,1,1-.53,0.83,0.83,0,0,1,.88,1v2h-0.34v-2c0-.49-0.15-0.76-0.61-0.76a1.45,1.45,0,0,0-1,.57v2.2h-0.34Z" transform="translate(-144 -960.2)"/><path class="cls-1" d="M482.46,1033.78a1,1,0,0,1,.87-1,0.93,0.93,0,0,1,.86,1h-1.73Zm2.08,0.28c0-.92-0.38-1.56-1.19-1.56a1.33,1.33,0,0,0-1.23,1.55,1.28,1.28,0,0,0,1.27,1.55,1.22,1.22,0,0,0,1.18-.73l-0.28-.15a0.93,0.93,0,0,1-.87.6,1.06,1.06,0,0,1-1-1.26h2.08Z" transform="translate(-144 -960.2)"/><path class="cls-1" d="M485.28,1035.53v-3h0.34V1033a1.22,1.22,0,0,1,1-.51,0.74,0.74,0,0,1,.72.55,1.26,1.26,0,0,1,1-.55,0.71,0.71,0,0,1,.79.81v2.23h-0.34v-2.27a0.45,0.45,0,0,0-.52-0.5,1.34,1.34,0,0,0-.88.57v2.2H487v-2.27a0.45,0.45,0,0,0-.52-0.5,1.34,1.34,0,0,0-.88.57v2.2h-0.34Z" transform="translate(-144 -960.2)"/><path class="cls-3" d="M672.74,1016.37c-14.62,0-22.23-3.22-26.77-10.82-2.56-4.38-3.47-12.22-3.47-17.26S643.41,975.41,646,971c4.54-7.6,12.15-10.82,26.77-10.82S695,963.43,699.51,971c2.56,4.38,3.47,12.22,3.47,17.26s-0.91,12.88-3.47,17.26C695,1013.14,687.36,1016.37,672.74,1016.37Zm7.35-12.21a5.57,5.57,0,0,1-5.2-3.39l-7.27-17.6a5.55,5.55,0,0,1,10.24-4.3l7.27,17.6A5.57,5.57,0,0,1,680.09,1004.16Zm-14.62,0a5.57,5.57,0,0,1-5.21-3.39L653,983.17a5.55,5.55,0,0,1,10.25-4.3l7.27,17.6A5.57,5.57,0,0,1,665.46,1004.16Zm23.75-13.3a5.57,5.57,0,0,1-5.2-3.39l-1.78-4.3a5.55,5.55,0,0,1,10.24-4.3l1.78,4.3A5.56,5.56,0,0,1,689.22,990.86Z" transform="translate(-144 -960.2)"/><path class="cls-1" d="M592.23,1027.64l-2.88,9a0.82,0.82,0,0,1-.78.56,0.77,0.77,0,0,1-.73-0.55L586,1030.1l-1.85,6.59a0.75,0.75,0,0,1-.72.55,0.82,0.82,0,0,1-.78-0.56l-2.9-9a1.06,1.06,0,0,1,0-.22,0.79,0.79,0,0,1,.55-0.78,0.63,0.63,0,0,1,.23,0,0.8,0.8,0,0,1,.76.56l2.13,6.68,1.88-6.7a0.74,0.74,0,0,1,1.43,0l1.87,6.7,2.13-6.68a0.8,0.8,0,0,1,.76-0.56,0.62,0.62,0,0,1,.23,0,0.8,0.8,0,0,1,.56.76A0.62,0.62,0,0,1,592.23,1027.64Zm9.95,9.52a0.83,0.83,0,0,1-.33.08,0.78,0.78,0,0,1-.72-0.47l-1-2.21h-4.8l-1,2.21a0.8,0.8,0,0,1-.73.47,0.74,0.74,0,0,1-.31-0.06,0.79,0.79,0,0,1-.45-0.72,0.9,0.9,0,0,1,.06-0.34l4.1-9a0.81,0.81,0,0,1,.72-0.47,0.79,0.79,0,0,1,.72.47l4.1,9a0.82,0.82,0,0,1,.06.33A0.76,0.76,0,0,1,602.18,1037.16Zm-4.42-8-1.76,3.94h3.52Zm13.72,3.27s0.06,0.11,1.76,3.6a0.65,0.65,0,0,1,.08.34,0.81,0.81,0,0,1-.45.75,0.71,0.71,0,0,1-.36.08,0.8,0.8,0,0,1-.73-0.47l-1.95-4H606.6v3.66a0.83,0.83,0,0,1-1.67,0v-8.85a0.83,0.83,0,0,1,.83-0.83h4.08c1.95,0,3.52.93,3.52,3A2.72,2.72,0,0,1,611.48,1032.47Zm-1.42-4.2H606.6v3.05h3.46a1.51,1.51,0,0,0,1.64-1.51A1.52,1.52,0,0,0,610.06,1028.27Zm13.93,9a0.71,0.71,0,0,1-.61-0.3l-5.48-7.38v6.9a0.78,0.78,0,0,1-.79.78,0.77,0.77,0,0,1-.78-0.78v-9.06a0.79,0.79,0,0,1,.81-0.79,0.76,0.76,0,0,1,.59.3s3.08,4.28,5.48,7.38v-6.88a0.78,0.78,0,0,1,.78-0.79,0.8,0.8,0,0,1,.79.79v9.06A0.78,0.78,0,0,1,624,1037.24Zm10.93-.12h-6a0.84,0.84,0,0,1-.84-0.84v-8.71a0.82,0.82,0,0,1,.84-0.83h5.78a0.77,0.77,0,0,1,.79.76,0.8,0.8,0,0,1-.79.79h-5V1031h2.77a0.78,0.78,0,0,1,0,1.56h-2.77v3h5.19A0.78,0.78,0,1,1,634.92,1037.11Zm9.89-4.64s0.06,0.11,1.76,3.6a0.65,0.65,0,0,1,.08.34,0.81,0.81,0,0,1-.45.75,0.71,0.71,0,0,1-.36.08,0.8,0.8,0,0,1-.73-0.47l-1.95-4h-3.22v3.66a0.83,0.83,0,0,1-1.67,0v-8.85a0.83,0.83,0,0,1,.83-0.83h4.08c1.95,0,3.52.93,3.52,3A2.72,2.72,0,0,1,644.81,1032.47Zm-1.42-4.2h-3.46v3.05h3.46a1.51,1.51,0,0,0,1.64-1.51A1.52,1.52,0,0,0,643.4,1028.27Zm20.31,9a0.77,0.77,0,0,1-.78-0.78v-5.76c-1.87,3.78-2.9,6.12-2.9,6.12a0.75,0.75,0,0,1-1.36,0l-2.91-6.09v5.73a0.8,0.8,0,0,1-.79.79,0.78,0.78,0,0,1-.78-0.79v-9.06a0.77,0.77,0,0,1,.78-0.78,0.82,0.82,0,0,1,.73.5l3.66,7.66,3.63-7.68a0.78,0.78,0,0,1,.72-0.48,0.8,0.8,0,0,1,.79.79v9.06A0.78,0.78,0,0,1,663.71,1037.24Zm7.94,0.08a4.09,4.09,0,0,1-4.33-4.39v-5.48a0.82,0.82,0,0,1,.83-0.84,0.84,0.84,0,0,1,.84.84v5.7a2.65,2.65,0,0,0,5.31,0v-5.7a0.84,0.84,0,0,1,1.68,0v5.48A4.09,4.09,0,0,1,671.65,1037.31Zm77.59,0a4.09,4.09,0,0,1-4.33-4.39v-5.48a0.83,0.83,0,0,1,.83-0.84,0.84,0.84,0,0,1,.84.84v5.7a2.66,2.66,0,0,0,5.31,0v-5.7a0.84,0.84,0,0,1,1.68,0v5.48A4.09,4.09,0,0,1,749.24,1037.31Zm-58.85-.08a0.84,0.84,0,0,1-.84-0.84v-9a0.84,0.84,0,0,1,.84-0.84,0.82,0.82,0,0,1,.82.84v9A0.82,0.82,0,0,1,690.39,1037.24Zm12.8-1.92a5.32,5.32,0,1,1-4.1-8.77,5,5,0,0,1,3.49,1.36,0.82,0.82,0,0,1,.27.58,0.77,0.77,0,0,1-.19.5,0.71,0.71,0,0,1-.55.26,0.84,0.84,0,0,1-.51-0.19,3.53,3.53,0,0,0-2.51-1,3.85,3.85,0,1,0,3,6.18,0.7,0.7,0,0,1,.53-0.23,0.75,0.75,0,0,1,.53.2,0.7,0.7,0,0,1,.23.53A0.89,0.89,0,0,1,703.2,1035.32ZM719,1035.4a5.39,5.39,0,1,1-4.25-8.85,5.1,5.1,0,0,1,3.55,1.32,0.85,0.85,0,0,1,.28.62,0.73,0.73,0,0,1-.72.72,0.77,0.77,0,0,1-.48-0.16,3.89,3.89,0,0,0-2.63-1,3.86,3.86,0,0,0,0,7.71,3.74,3.74,0,0,0,2.77-1.12v-1.85h-2.31a0.75,0.75,0,1,1,0-1.5h3.13a0.81,0.81,0,0,1,.84.84v2.71A0.71,0.71,0,0,1,719,1035.4Zm9.45-2.93s0.06,0.11,1.76,3.6a0.65,0.65,0,0,1,.08.34,0.81,0.81,0,0,1-.45.75,0.71,0.71,0,0,1-.36.08,0.8,0.8,0,0,1-.73-0.47l-1.95-4H723.6v3.66a0.83,0.83,0,0,1-1.67,0v-8.85a0.83,0.83,0,0,1,.83-0.83h4.08c1.95,0,3.52.93,3.52,3A2.72,2.72,0,0,1,728.48,1032.47Zm-1.42-4.2H723.6v3.05h3.46a1.51,1.51,0,0,0,1.64-1.51A1.52,1.52,0,0,0,727.06,1028.27Zm10.41,9a5.38,5.38,0,1,1,5.26-5.39A5.32,5.32,0,0,1,737.47,1037.31Zm0-9.24a3.86,3.86,0,1,0,3.6,3.85A3.66,3.66,0,0,0,737.47,1028.08Zm23.81,4.89h-3.19v3.44a0.82,0.82,0,0,1-.84.83,0.81,0.81,0,0,1-.83-0.83v-8.85a0.81,0.81,0,0,1,.83-0.83h4c2.41,0,3.52,1.48,3.52,3.13S763.7,1033,761.28,1033Zm0.22-4.7h-3.41v3.16h3.41a1.51,1.51,0,0,0,1.62-1.56A1.55,1.55,0,0,0,761.5,1028.27Zm-76.33.36a7.16,7.16,0,0,0-2.52-.55c-1,0-2.41.2-2.41,1.24s2.13,1.61,3.3,2c1.69,0.56,3.24,1.06,3.24,3,0,2.26-2.1,3-4.17,3a7.71,7.71,0,0,1-3.81-.92,0.77,0.77,0,0,1-.37-0.7,0.71,0.71,0,0,1,.72-0.75,1.43,1.43,0,0,1,.53.15,6.39,6.39,0,0,0,2.91.68c1,0,2.52-.26,2.52-1.43s-1.87-1.39-3.79-2.07c-1.38-.5-2.76-1.08-2.76-2.94,0-2.13,2.09-2.77,4-2.77a9.17,9.17,0,0,1,3.22.68,0.77,0.77,0,0,1,.48.69,0.72,0.72,0,0,1-.73.78A1.28,1.28,0,0,1,685.17,1028.63Z" transform="translate(-144 -960.2)"/><polyline class="cls-3" points="713.49 61.37 772.36 61.37 829.98 3.74 713.49 3.74 713.49 61.37"/><path class="cls-4" d="M926.62,974.78H915.15V1002l-10-27.26H895.2l-8.55,22.8c-0.91-5.74-6.85-7.73-11.53-9.22-3.09-1-6.36-2.45-6.33-4.06,0-1.32,1.76-2.55,5.19-2.37a18.74,18.74,0,0,1,8.39,2.26l4-6.94a31,31,0,0,0-13-3.07h0c-4.88,0-8.95,1.59-11.47,4.19a9.68,9.68,0,0,0-2.75,6.69,9,9,0,0,0,3.94,8,26.9,26.9,0,0,0,7.79,3.57c3.18,1,5.78,1.84,5.75,3.67a2.63,2.63,0,0,1-.75,1.79,5,5,0,0,1-3.7,1.16c-3.25.06-5.66-.44-9.5-2.71l-3.54,7a26.49,26.49,0,0,0,13,3.45h0.6a15.69,15.69,0,0,0,9.87-3.31l0.42-.36-1.15,3.07h10.41l1.75-5.32a19.88,19.88,0,0,0,12.1,0l1.68,5.27h17v-11h3.7c9,0,14.26-4.56,14.26-12.2C942.73,978.69,937.58,974.78,926.62,974.78Zm-26.5,23.33a10.4,10.4,0,0,1-3.68-.65L900.08,986h0.07l3.56,11.5A10.59,10.59,0,0,1,900.12,998.11Zm27.17-6.59h-2.53v-9.24h2.53c3.37,0,6.05,1.12,6.05,4.57s-2.68,4.67-6.05,4.67" transform="translate(-144 -960.2)"/><path class="cls-1" d="M930.45,1017.83a3,3,0,1,1,3,3.12A3,3,0,0,1,930.45,1017.83Zm3,3.75a3.74,3.74,0,1,0-3.79-3.75A3.73,3.73,0,0,0,933.49,1021.58Zm-0.79-3.45h0.75l1.13,1.87h0.73l-1.23-1.9a1.12,1.12,0,0,0,1.12-1.18c0-.85-0.5-1.23-1.52-1.23H932V1020h0.65v-1.87Zm0-.56v-1.33h0.89c0.45,0,.93.1,0.93,0.63s-0.49.7-1,.7H932.7Z" transform="translate(-144 -960.2)"/><path class="cls-3" d="M1054.66,1005v2.89a23.48,23.48,0,0,0,4.09,12.73c2.33,3.5,5.44,5.57,9,7.81a44.22,44.22,0,0,0,12.32,4.5,75.49,75.49,0,0,0,15.19,1.63h2.8c17.48,0,35.23-5.07,46.66-11.12v-8.23c-3.09,1.64-6.9,3.8-10.47,4.9-0.76.23-2,.75-2.75,1-1,.36-1.94.6-2.91,1a49.62,49.62,0,0,1-6,1.7c-2.08.45-4.06,1-6.24,1.45s-4.25.69-6.58,1.1c-2.16.38-4.72,0.51-7,.67s-4.9.27-7.51,0.27h-0.54c-9.27,0-18.11-1.46-24.3-4.55-6-3-11.52-8.49-11.52-17.33v-0.81c0-4.16,1.28-7.35,2.48-10.36a25.61,25.61,0,0,1,2.28-4.14c0.47-.71.86-1.23,1.35-1.9s1.14-1.25,1.48-1.77v-2.89a31,31,0,0,0-4.18,4.14,33.86,33.86,0,0,0-3.56,4.76c-1.7,2.52-4.11,8.4-4.11,12.53h0Z" transform="translate(-144 -960.2)"/><path class="cls-3" d="M1163.17,989.31v-2.62s-0.42-2.93-.49-3.31a16.8,16.8,0,0,0-.84-3,19.56,19.56,0,0,0-2.72-5,25.47,25.47,0,0,0-8.31-7c-6.18-3.42-15.58-5.48-25.17-5.48h-0.81a91.76,91.76,0,0,0-25.83,3.83c-2,.58-3.71,1.17-5.61,1.81a47.63,47.63,0,0,0-5.31,2.11c-1.69.84-3.38,1.56-5,2.38-0.88.43-4.24,2.5-4.79,2.62v2.17c0.75-.17,3.49-1.69,4.55-2.14,1.47-.62,3.31-1.55,4.78-2,0.67-.21,1.78-0.62,2.44-0.91s1.65-.55,2.51-0.84c1.63-.55,3.46-1.16,5.18-1.6,3.72-.93,7-1.69,11.07-2.41a77.53,77.53,0,0,1,12.25-1.23h4.07c7.92,0,16.5,1.82,21.58,4.64a21.75,21.75,0,0,1,7.28,5.83,17.47,17.47,0,0,1,3.6,9.6v1.54a18.51,18.51,0,0,1-3.58,10,23.71,23.71,0,0,1-3.18,3.6,23.19,23.19,0,0,1-4,2.87v6c1.28-.11,5.11-2.58,6.1-3.31a25.43,25.43,0,0,0,4.83-4.67,26.71,26.71,0,0,0,3.57-5.92,25.66,25.66,0,0,0,1.2-3.51c0.15-.51.66-4.1,0.67-4.12h0Z" transform="translate(-144 -960.2)"/><path class="cls-3" d="M1114.43,999.35v1.09c0,6.22,3.81,10.76,10,10.76h1.18a10.92,10.92,0,0,0,4.58-1c1.47-.62,2.21-1.69,3.31-2.43l-3.55-3.32a5.89,5.89,0,0,1-4.43,2.08h-1a4.56,4.56,0,0,1-4.52-4.25v-0.63h14.11v-2.44a12.7,12.7,0,0,0-2.29-7.3,8.51,8.51,0,0,0-6.31-3.37h-1.72a9.81,9.81,0,0,0-6.81,3.32,12,12,0,0,0-2.6,7.53h0Zm5.61-2.17v0.63h8.5v-0.45a4.08,4.08,0,0,0-4-4.25h-0.45a4.33,4.33,0,0,0-4.07,4.07h0Z" transform="translate(-144 -960.2)"/><path class="cls-3" d="M1081.06,1010.83h5.52V993.38h5a2,2,0,0,1,2,1.9v15.55h5.61V995.37c0-3.67-2.5-6.51-6.15-6.51h-11.94v22h0Z" transform="translate(-144 -960.2)"/><path class="cls-3" d="M1103.22,1004.32c0,3.71,2.41,6.51,6.06,6.51h3.8v-4.7h-2.8a1.74,1.74,0,0,1-1.45-1.81V993.38h4.25v-4.52h-4.25V982.8h-5.61v21.52h0Z" transform="translate(-144 -960.2)"/><path class="cls-3" d="M1137.4,1005.5a5.47,5.47,0,0,0,1.69,3.64,5.33,5.33,0,0,0,1.7,1,12.3,12.3,0,0,0,2.21.5V979.72h-5.61v25.77h0Z" transform="translate(-144 -960.2)"/><path class="cls-3" d="M1070.37,994l0,10.94c0,3.71,2.17,6.07,5.7,6.15V988.86h-5.59l-0.13,5.15h0Z" transform="translate(-144 -960.2)"/><polygon class="cls-3" points="926.48 25.58 932.09 25.58 932.09 20.24 926.48 20.24 926.48 25.58 926.48 25.58"/><path class="cls-3" d="M1149.06,979.7a2.3,2.3,0,0,1,1.1.29,2.06,2.06,0,0,1,.84.83,2.26,2.26,0,0,1,0,2.24,2.08,2.08,0,0,1-.83.83,2.25,2.25,0,0,1-2.23,0,2.09,2.09,0,0,1-.83-0.83,2.24,2.24,0,0,1,0-2.24A2.06,2.06,0,0,1,1148,980a2.3,2.3,0,0,1,1.1-.29h0Zm0,0.37a1.92,1.92,0,0,0-.92.24,1.75,1.75,0,0,0-.7.69,1.86,1.86,0,0,0,0,1.87,1.78,1.78,0,0,0,.69.69,1.87,1.87,0,0,0,1.86,0,1.75,1.75,0,0,0,.69-0.69,1.89,1.89,0,0,0,.25-0.93,1.91,1.91,0,0,0-.25-0.94,1.74,1.74,0,0,0-.7-0.69,1.92,1.92,0,0,0-.92-0.24h0Zm-1,3.11v-2.41h0.83a2,2,0,0,1,.62.07,0.6,0.6,0,0,1,.3.23,0.62,0.62,0,0,1,.11.35,0.64,0.64,0,0,1-.19.46,0.75,0.75,0,0,1-.5.22,0.64,0.64,0,0,1,.21.13,2.68,2.68,0,0,1,.36.48l0.29,0.47h-0.48l-0.21-.38a2,2,0,0,0-.41-0.56,0.5,0.5,0,0,0-.31-0.08h-0.23v1h-0.39Zm0.39-1.36h0.47a0.77,0.77,0,0,0,.46-0.1,0.33,0.33,0,0,0,.12-0.27,0.32,0.32,0,0,0-.06-0.19,0.35,0.35,0,0,0-.16-0.13,1.2,1.2,0,0,0-.39,0h-0.44v0.73h0Z" transform="translate(-144 -960.2)"/><path class="cls-1" d="M151.32,1184.79a1.07,1.07,0,0,1-.27.79,2.92,2.92,0,0,1-1.05.55,5.33,5.33,0,0,1-1.77.28,3.87,3.87,0,0,1-3.09-1.31,5.19,5.19,0,0,1-1.13-3.52,5.79,5.79,0,0,1,.56-2.63,4,4,0,0,1,1.59-1.72,4.28,4.28,0,0,1,2.19-.6,4.64,4.64,0,0,1,1.21.15,4,4,0,0,1,1,.41,2.07,2.07,0,0,1,.51.37,0.42,0.42,0,0,1,.07.24,0.46,0.46,0,0,1-.13.31,0.4,0.4,0,0,1-.3.15,0.35,0.35,0,0,1-.18-0.06l-0.19-.12a3.5,3.5,0,0,0-2-.63,3.14,3.14,0,0,0-2.46,1.11,5.14,5.14,0,0,0-.07,5.93,3,3,0,0,0,2.48,1.09,4.2,4.2,0,0,0,1.34-.2,2.53,2.53,0,0,0,.72-0.31,0.57,0.57,0,0,0,.11-0.41v-2.5h-2.11a0.43,0.43,0,0,1,0-.87h2.57a0.37,0.37,0,0,1,.42.43v3.06h0Zm3.18-3.89h3.45a0.39,0.39,0,0,1,.44.44,0.38,0.38,0,0,1-.44.42H154.5v3.44a0.18,0.18,0,0,0,.18.21h3.72a0.38,0.38,0,0,1,.44.42,0.39,0.39,0,0,1-.44.45h-3.84a1,1,0,0,1-.69-0.24,0.9,0.9,0,0,1-.25-0.68v-7.51a1.18,1.18,0,0,1,.24-0.77,1,1,0,0,1,.78-0.3h3.76a0.43,0.43,0,1,1,0,.87h-3.66a0.23,0.23,0,0,0-.17.07,0.28,0.28,0,0,0-.07.19v3h0Zm9.61-3.51a0.54,0.54,0,0,1-.42-0.18,0.58,0.58,0,0,1-.16-0.41,0.57,0.57,0,0,1,.17-0.41,0.56,0.56,0,0,1,.41-0.17,0.58,0.58,0,0,1,.41.17,0.6,0.6,0,0,1,0,.84,0.58,0.58,0,0,1-.42.17h0Zm0.44,8.5a0.39,0.39,0,0,1-.45.43,0.38,0.38,0,0,1-.42-0.43v-6.35a0.43,0.43,0,0,1,.87,0v6.35h0Zm11.7,0a0.38,0.38,0,0,1-.42.43,0.39,0.39,0,0,1-.44-0.43v-4.32a1.76,1.76,0,0,0-.44-1.27,1.6,1.6,0,0,0-1.22-.47,1.69,1.69,0,0,0-1.35.6,2.59,2.59,0,0,0-.51,1.72v3.73a0.38,0.38,0,0,1-.42.43,0.39,0.39,0,0,1-.44-0.43v-4.32a1.8,1.8,0,0,0-.42-1.28,1.53,1.53,0,0,0-1.18-.46,1.71,1.71,0,0,0-1.4.62,2.6,2.6,0,0,0-.51,1.7v3.73a0.43,0.43,0,0,1-.87,0v-6.34a0.43,0.43,0,1,1,.87,0v0.59a2.29,2.29,0,0,1,.83-0.81,2.24,2.24,0,0,1,1.15-.3,2.5,2.5,0,0,1,1.29.32,2.29,2.29,0,0,1,.87,1,2.3,2.3,0,0,1,.88-0.94,2.78,2.78,0,0,1,3.1.31,2.39,2.39,0,0,1,.65,1.78v4.45h0Zm7.58,0a0.43,0.43,0,0,1-.87,0v-0.67a2.37,2.37,0,0,1-.89.9,2.79,2.79,0,0,1-3.41-.72,4.31,4.31,0,0,1-.78-2.69,4.21,4.21,0,0,1,.79-2.67,2.67,2.67,0,0,1,2.24-1,2.47,2.47,0,0,1,1.2.28,2.28,2.28,0,0,1,.85.83v-0.58a0.43,0.43,0,0,1,.87,0v6.35h0ZM183,1182a2.21,2.21,0,0,0-.57-1.58,1.91,1.91,0,0,0-1.45-.61,1.88,1.88,0,0,0-1.62.81,3.44,3.44,0,0,0-.58,2.05,3.59,3.59,0,0,0,.55,2.12,2.09,2.09,0,0,0,3.1.16,2.22,2.22,0,0,0,.57-1.57V1182h0Zm8.48,3.61a3.91,3.91,0,0,1-.81,2.69,3,3,0,0,1-2.37.9,3.85,3.85,0,0,1-1.52-.33,1,1,0,0,1-.77-0.65,0.5,0.5,0,0,1,.11-0.34,0.33,0.33,0,0,1,.25-0.13,0.87,0.87,0,0,1,.39.16,4.45,4.45,0,0,0,.81.37,2.62,2.62,0,0,0,.76.1,2.19,2.19,0,0,0,1.72-.64,2.78,2.78,0,0,0,.57-1.91v-0.67a2.26,2.26,0,0,1-.86.91,2.41,2.41,0,0,1-1.27.34,2.63,2.63,0,0,1-2.16-1,4.2,4.2,0,0,1-.8-2.72,4.08,4.08,0,0,1,.83-2.7,2.77,2.77,0,0,1,2.23-1,2.44,2.44,0,0,1,1.18.28,2.2,2.2,0,0,1,.85.81v-0.57a0.38,0.38,0,0,1,.44-0.42,0.37,0.37,0,0,1,.42.42v6.1h0Zm-0.87-3.61a2.21,2.21,0,0,0-.57-1.58,1.91,1.91,0,0,0-1.45-.61,1.94,1.94,0,0,0-1.6.75,3.32,3.32,0,0,0-.6,2.11,3.46,3.46,0,0,0,.58,2.12,1.9,1.9,0,0,0,1.62.77A1.87,1.87,0,0,0,190,1185a2.29,2.29,0,0,0,.56-1.59V1182h0Zm3.36-4.64a0.54,0.54,0,0,1-.42-0.18,0.58,0.58,0,0,1-.16-0.41,0.57,0.57,0,0,1,.17-0.41,0.56,0.56,0,0,1,.41-0.17,0.58,0.58,0,0,1,.41.17,0.6,0.6,0,0,1,0,.84,0.58,0.58,0,0,1-.42.17h0Zm0.44,8.5a0.39,0.39,0,0,1-.45.43,0.38,0.38,0,0,1-.42-0.43v-6.35a0.43,0.43,0,0,1,.87,0v6.35h0Zm7.63,0a0.38,0.38,0,0,1-.42.43,0.39,0.39,0,0,1-.44-0.43v-4.11a2.16,2.16,0,0,0-.43-1.45,1.58,1.58,0,0,0-1.26-.5,2,2,0,0,0-1.54.67,2.63,2.63,0,0,0-.6,1.82v3.57a0.43,0.43,0,0,1-.87,0v-6.34a0.43,0.43,0,1,1,.87,0v0.74a2.41,2.41,0,0,1,.92-0.93,2.63,2.63,0,0,1,1.32-.34,2.36,2.36,0,0,1,1.82.68,2.62,2.62,0,0,1,.63,1.85v4.34h0Zm7.58,0a0.43,0.43,0,0,1-.87,0v-0.67a2.37,2.37,0,0,1-.89.9,2.79,2.79,0,0,1-3.41-.72,4.31,4.31,0,0,1-.78-2.69,4.21,4.21,0,0,1,.79-2.67,2.67,2.67,0,0,1,2.24-1,2.47,2.47,0,0,1,1.2.28,2.28,2.28,0,0,1,.85.83v-0.58a0.43,0.43,0,0,1,.87,0v6.35h0Zm-0.87-3.86a2.21,2.21,0,0,0-.57-1.58,1.91,1.91,0,0,0-1.45-.61,1.88,1.88,0,0,0-1.62.81,3.44,3.44,0,0,0-.58,2.05,3.59,3.59,0,0,0,.55,2.12,2.09,2.09,0,0,0,3.1.16,2.22,2.22,0,0,0,.57-1.57V1182h0Zm4.19-2.08v4.45a1.62,1.62,0,0,0,.2.9,0.7,0.7,0,0,0,.62.3,1.08,1.08,0,0,0,.28,0,2.78,2.78,0,0,0,.39-0.16,0.4,0.4,0,0,1,.16,0,0.31,0.31,0,0,1,.24.12,0.41,0.41,0,0,1,.11.28,0.56,0.56,0,0,1-.36.44,1.74,1.74,0,0,1-.84.2,1.55,1.55,0,0,1-1.28-.48,2.32,2.32,0,0,1-.39-1.47v-4.52h-0.78a0.36,0.36,0,0,1-.43-0.39,0.37,0.37,0,0,1,.43-0.4H212v-1.64a0.43,0.43,0,0,1,.87,0v1.64h1.19a0.37,0.37,0,0,1,.43.4,0.36,0.36,0,0,1-.43.39H212.9Zm3.6-2.56a0.54,0.54,0,0,1-.42-0.18,0.58,0.58,0,0,1-.16-0.41,0.57,0.57,0,0,1,.17-0.41,0.56,0.56,0,0,1,.41-0.17,0.58,0.58,0,0,1,.41.17,0.6,0.6,0,0,1,0,.84,0.58,0.58,0,0,1-.42.17h0Zm0.44,8.5a0.39,0.39,0,0,1-.45.43,0.38,0.38,0,0,1-.42-0.43v-6.35a0.43,0.43,0,0,1,.87,0v6.35h0Zm4.77,0.53a2.84,2.84,0,0,1-2.24-1,4.66,4.66,0,0,1,0-5.43,3.08,3.08,0,0,1,4.5,0,4.63,4.63,0,0,1,0,5.41,2.86,2.86,0,0,1-2.26,1h0Zm0-6.58a2.07,2.07,0,0,0-1.6.72,3.13,3.13,0,0,0-.65,2.16,3,3,0,0,0,.68,2.15,2.08,2.08,0,0,0,3.15,0,3,3,0,0,0,.68-2.15,3.17,3.17,0,0,0-.64-2.15,2.06,2.06,0,0,0-1.63-.73h0Zm10.35,6a0.38,0.38,0,0,1-.42.43,0.39,0.39,0,0,1-.44-0.43v-4.11a2.16,2.16,0,0,0-.43-1.45,1.58,1.58,0,0,0-1.26-.5,2,2,0,0,0-1.54.67,2.63,2.63,0,0,0-.6,1.82v3.57a0.43,0.43,0,0,1-.87,0v-6.34a0.43,0.43,0,1,1,.87,0v0.74a2.41,2.41,0,0,1,.92-0.93,2.63,2.63,0,0,1,1.32-.34,2.36,2.36,0,0,1,1.82.68,2.62,2.62,0,0,1,.63,1.85v4.34h0Zm10.82,0a0.43,0.43,0,0,1-.87,0v-0.67a2.37,2.37,0,0,1-.89.9,2.79,2.79,0,0,1-3.41-.72,4.31,4.31,0,0,1-.78-2.69,4.21,4.21,0,0,1,.79-2.67,2.67,2.67,0,0,1,2.24-1,2.47,2.47,0,0,1,1.2.28,2.28,2.28,0,0,1,.85.83v-0.58a0.43,0.43,0,0,1,.87,0v6.35h0ZM242,1182a2.21,2.21,0,0,0-.57-1.58,1.91,1.91,0,0,0-1.45-.61,1.88,1.88,0,0,0-1.62.81,3.44,3.44,0,0,0-.58,2.05,3.59,3.59,0,0,0,.55,2.12,2.09,2.09,0,0,0,3.1.16,2.22,2.22,0,0,0,.57-1.57V1182h0Zm4.19-2.08v4.45a1.62,1.62,0,0,0,.2.9,0.7,0.7,0,0,0,.62.3,1.08,1.08,0,0,0,.28,0,2.78,2.78,0,0,0,.39-0.16,0.4,0.4,0,0,1,.16,0,0.31,0.31,0,0,1,.24.12,0.41,0.41,0,0,1,.11.28,0.56,0.56,0,0,1-.36.44,1.74,1.74,0,0,1-.84.2,1.55,1.55,0,0,1-1.28-.48,2.32,2.32,0,0,1-.39-1.47v-4.52h-0.78a0.36,0.36,0,0,1-.43-0.39,0.37,0.37,0,0,1,.43-0.4h0.78v-1.64a0.43,0.43,0,0,1,.87,0v1.64h1.19a0.37,0.37,0,0,1,.43.4,0.36,0.36,0,0,1-.43.39h-1.19Zm10.47,0.87q-0.42,1.57-.87,2.86a12.49,12.49,0,0,1-.81,1.91,2.57,2.57,0,0,1-.46.68,0.49,0.49,0,0,1-.22.05h-0.07a0.62,0.62,0,0,1-.31-0.09,3.65,3.65,0,0,1-.61-1.15,21.29,21.29,0,0,1-.88-2.69,24.76,24.76,0,0,1-.6-2.77,1.11,1.11,0,0,1,0-.14,0.37,0.37,0,0,1,.44-0.38,0.38,0.38,0,0,1,.4.37q0.21,1.32.62,2.89a19.31,19.31,0,0,0,1,2.94,26.76,26.76,0,0,0,1.94-5.84,0.46,0.46,0,0,1,.91,0,25.61,25.61,0,0,0,1.68,5.82,24.23,24.23,0,0,0,1.13-2.88,23.78,23.78,0,0,0,.75-3,0.38,0.38,0,0,1,.42-0.35,0.36,0.36,0,0,1,.44.37,1.47,1.47,0,0,1,0,.23,20.56,20.56,0,0,1-.67,2.5,24.57,24.57,0,0,1-1,2.79,5.66,5.66,0,0,1-.65,1.22,0.54,0.54,0,0,1-.34.11h-0.08a0.53,0.53,0,0,1-.31-0.1,3.66,3.66,0,0,1-.52-1,18.09,18.09,0,0,1-.71-2q-0.32-1.11-.57-2.36h0Zm8.85,5.6a2.84,2.84,0,0,1-2.24-1,4.66,4.66,0,0,1,0-5.43,3.08,3.08,0,0,1,4.5,0,4.63,4.63,0,0,1,0,5.41,2.86,2.86,0,0,1-2.26,1h0Zm0-6.58a2.07,2.07,0,0,0-1.6.72,3.13,3.13,0,0,0-.65,2.16,3,3,0,0,0,.68,2.15,2.08,2.08,0,0,0,3.15,0,3,3,0,0,0,.68-2.15,3.17,3.17,0,0,0-.64-2.15,2.06,2.06,0,0,0-1.63-.73h0Zm5.66,0.18a1.82,1.82,0,0,1,1.71-1,1.6,1.6,0,0,1,.76.14,0.4,0.4,0,0,1,.25.35,0.6,0.6,0,0,1-.08.31,0.25,0.25,0,0,1-.23.13,0.72,0.72,0,0,1-.21,0,1.75,1.75,0,0,0-.51-0.07,1.53,1.53,0,0,0-1.23.55,2.14,2.14,0,0,0-.47,1.44v4.06a0.43,0.43,0,0,1-.87,0v-6.35a0.43,0.43,0,0,1,.87,0V1180h0Zm4.76,2.34a14.25,14.25,0,0,0,1.73-1.44,11.54,11.54,0,0,0,1.36-1.59,0.44,0.44,0,0,1,.35-0.23,0.47,0.47,0,0,1,.32.12,0.33,0.33,0,0,1,.13.25,0.6,0.6,0,0,1-.09.29,7.4,7.4,0,0,1-.57.75,15.45,15.45,0,0,1-1.65,1.64,11.21,11.21,0,0,1,.92.95,14.56,14.56,0,0,1,.91,1.16,4.22,4.22,0,0,1,.89,1.68,0.39,0.39,0,0,1-.13.27,0.42,0.42,0,0,1-.32.13,0.34,0.34,0,0,1-.24-0.08,0.88,0.88,0,0,1-.16-0.22,13.58,13.58,0,0,0-1.19-1.89,9.88,9.88,0,0,0-1.37-1.48q-0.67.5-.89,0.64v2.57a0.43,0.43,0,1,1-.87,0v-9.64a0.43,0.43,0,0,1,.87,0v6.12h0Z" transform="translate(-144 -960.2)"/><path class="cls-3" d="M236.09,1144.21a24,24,0,1,0-24,24,24,24,0,0,0,24-24h0Zm-1.14,0a22.83,22.83,0,1,1-22.82-22.84,22.81,22.81,0,0,1,22.82,22.84h0Zm-1.45,0c0-7.58-3.86-15.41-12.15-17.92a15.89,15.89,0,0,0-4.85-.87c-3.84,0-4,2.18-5.77,2.18a1.58,1.58,0,0,1-1.66-1.59c0-1.52,1.79-2.71,4.64-2.71a14.45,14.45,0,0,1,5.1.85l0.07-.19a19.56,19.56,0,0,0-6.76-1.14c-7.65,0-15.41,3.93-17.92,12.15a16,16,0,0,0-.87,4.85c0,3.86,2.18,4,2.18,5.84a1.57,1.57,0,0,1-1.59,1.6c-1.52,0-2.71-1.74-2.71-4.66a17.42,17.42,0,0,1,.79-5.1l-0.19-.07a23,23,0,0,0-1.08,6.78c0,7.7,3.93,15.47,12.15,18a16,16,0,0,0,4.85.85c3.86,0,4-2.25,5.77-2.25a1.65,1.65,0,0,1,1.67,1.66c0,1.47-1.74,2.66-4.66,2.66a16.12,16.12,0,0,1-5.1-.8l-0.07.2a19.26,19.26,0,0,0,6.78,1.06c7.63,0,15.47-3.86,17.92-12.15a15.44,15.44,0,0,0,.85-4.78c0-3.91-2.18-4-2.18-5.84a1.55,1.55,0,0,1,1.59-1.66c1.54,0,2.73,1.79,2.73,4.71a17.44,17.44,0,0,1-.8,5.1l0.2,0.07a21.44,21.44,0,0,0,1.06-6.83h0Zm-8,6.37a6.32,6.32,0,0,1-6.37,6.11c-4.57,0-6.9-3.86-6.9-7.31a8.26,8.26,0,0,1,4.71-7.63,2.4,2.4,0,0,1-.67-0.8,63,63,0,0,1-6.11,3.86,26,26,0,0,1-.87,6c-1.13,3.38-3.45,5.84-6.5,5.84a3.65,3.65,0,0,1-3.84-3.86,6.89,6.89,0,0,1,2.39-4.71,32.83,32.83,0,0,1,7-4.32c0.07-.39.14-0.79,0.2-1.26a4.07,4.07,0,0,1-2.66.94A3,3,0,0,1,203,1141a3.49,3.49,0,0,1-3.33-3.58c0-1.52.6-2.85,1.6-2.85a0.54,0.54,0,0,1,.53.6,12.64,12.64,0,0,0-.34,2c0,0.87.41,2,1.47,2,0-3.45,2.53-7.9,5.51-7.9a2,2,0,0,1,2.25,2.13c0,3.12-3.12,6.57-5.65,7.43a1.22,1.22,0,0,0,1.14,1,4.38,4.38,0,0,0,2.78-1.67c0.26-1.38,1.26-3.38,2.59-3.38a0.78,0.78,0,0,1,.79.87c0,1-1.06,2.25-1.86,3.11a11.91,11.91,0,0,0-.19,2,61.71,61.71,0,0,0,5.24-3.38,5.61,5.61,0,0,1-.14-1.54c0-3.11,2.07-6.57,4.78-6.57a2.18,2.18,0,0,1,2.32,2.27c0,2.25-1.93,4.23-4.64,6.3a2.27,2.27,0,0,0,1.06,1.26,3.66,3.66,0,0,1,1.66-.27c0.8,0,1.93.2,1.93,1s-1.26,1.13-2.25,1.13a5.12,5.12,0,0,1-1.4-.14c-1.45.39-4.25,2.07-4.25,6.3,0,2.87,1.79,5.51,4.59,5.51a3.91,3.91,0,0,0,3.91-4c0-1.59-.67-3.26-2.25-3.26a1.48,1.48,0,0,0-1.52,1.47c-0.07,1.33.92,1.47,0.92,2.32a0.85,0.85,0,0,1-.92.87c-1.33,0-2.34-1.33-2.34-3a3.82,3.82,0,0,1,4-3.65c2.92,0,4.44,2.53,4.44,5.24h0Zm-4.9-16.73a0.59,0.59,0,0,0-.48-0.73c-1,0-2.58,2.13-2.58,4.85,2-1.72,3.06-3.19,3.06-4.11h0Zm-11.76-.27a0.41,0.41,0,0,0-.46-0.46c-1.4,0-3.38,3.65-3.38,5.84,2.19-1.2,3.84-3.91,3.84-5.38h0ZM208,1146c-3,1.45-6.78,4-6.78,6.9a1.49,1.49,0,0,0,1.52,1.72c2.92,0,4.71-4.64,5.26-8.62h0Z" transform="translate(-144 -960.2)"/><path class="cls-1" d="M389.9,1133.86L419,1134v8.61c0.09,0.56-.64.46-0.75-0.09a15.67,15.67,0,0,0-3.18-5.05H402.9v10.48H413.1c0.75-.28,1.94-2.33,2.72-4.4,0.28-.75.85-0.28,0.84-0.09-0.19,3.37-.14,9.53-0.09,12.07,0,0.94-.47,1.22-0.75.37s-1.68-3.74-2.62-4.49H402.9v12h13.19c0.75-.56,2.68-4.79,2.9-5.89,0.09-.47.84-0.47,0.84-0.09v9.92l-20.68-.28a75.11,75.11,0,0,0-9.26.37c-0.66.06-.64-0.91-0.19-1.12,4.58-2.15,5.15-.94,5.15-7.48v-17.87c0-4.86-1.4-4.67-5.15-6.08C389.32,1134.65,389.53,1134,389.9,1133.86Z" transform="translate(-144 -960.2)"/><path class="cls-1" d="M426.1,1133.67l13.57,0.28,10.38,21.33,10.76-21H470c0.75,0,3.65-.28,4.11-0.37s0.56,0.84.19,1-4.86,2.06-5.33,2.71l2.71,26c0.37,0.84,4.95,2.77,5.71,2.9,0.56,0.09.39,0.77,0.09,0.75-2.9-.19-16-0.19-18.8,0-0.28,0-1.46-.44-0.19-0.84,1.5-.47,4.49-1.5,5.14-2.62l-1.87-22.64-12.91,26.1h-2.15l-11.79-25.54-2.06,21.89c0.84,1.68,4.77,2.43,5.24,2.62s0.47,0.88.09,0.84a143.5,143.5,0,0,0-14.41.1c-0.56.09-1.58-.62-0.28-1,3.66-1.16,4.86-.09,5.71-8.6l2.24-18.71c0.28-3.09-3.64-3.46-5.42-4.11C425.75,1134.61,425.45,1133.67,426.1,1133.67Z" transform="translate(-144 -960.2)"/><path class="cls-1" d="M504.34,1142.28l0.28-8.61c-3.84-.47-13.3-2-21.14,3.74-8.13,6-10.35,21.27.19,28.16,7,4.58,19.83,1.4,20.77.94a1.26,1.26,0,0,0,.84-0.84c0-.38.09-8,0.09-8.42s-0.56-.28-0.84.09-1.72,5.86-3.09,6.55c-3,1.52-10.19,2.49-13.94-5.14a19.35,19.35,0,0,1,1-18.06,9.3,9.3,0,0,1,11.51-4.11c1.59,0.93,2.56,3,3.27,5.61C503.59,1143.22,504.24,1143,504.34,1142.28Z" transform="translate(-144 -960.2)"/><path class="cls-1" d="M507,1129.28c3.93-3.65,7.39-2.34,8.6-1.12s2,3.88-.84,6.74c-1.41,1.4-4.31,3.65-4.31,3.65h4.49c0.47-.09,1.29-1.7,1.59-2.15,0.19-.28.37-0.19,0.37,0.19v4.77c-1.31-.09-9.07-0.09-10.29-0.09v-1.59a35.21,35.21,0,0,0,5.52-5.71c1.5-1.87,1.25-6.86-4-3.93C507.24,1130.5,506.67,1130,507,1129.28Z" transform="translate(-144 -960.2)"/><path class="cls-1" d="M510.29,1159.91a2.62,2.62,0,1,1-2.6,2.61,2.57,2.57,0,0,1,2.6-2.61h0Zm0,0.41a2.21,2.21,0,0,0,0,4.42,2.21,2.21,0,0,0,0-4.42h0Zm-0.49,3.72h-0.46v-2.91a5.22,5.22,0,0,1,.82-0.07,1.53,1.53,0,0,1,.9.22,0.7,0.7,0,0,1,.27.6,0.72,0.72,0,0,1-.57.71v0a0.7,0.7,0,0,1,.49.71,2.39,2.39,0,0,0,.19.72h-0.49a2.13,2.13,0,0,1-.2-0.74,0.54,0.54,0,0,0-.63-0.51h-0.33V1164Zm0-1.61h0.34a0.58,0.58,0,0,0,.71-0.5,0.57,0.57,0,0,0-.71-0.51,2.26,2.26,0,0,0-.34,0v1Z" transform="translate(-144 -960.2)"/><path class="cls-1" d="M510.29,1159.91a2.62,2.62,0,1,1-2.6,2.61,2.57,2.57,0,0,1,2.6-2.61h0Zm0,0.41a2.21,2.21,0,0,0,0,4.42,2.21,2.21,0,0,0,0-4.42h0Zm-0.49,3.72h-0.46v-2.91a5.22,5.22,0,0,1,.82-0.07,1.53,1.53,0,0,1,.9.22,0.7,0.7,0,0,1,.27.6,0.72,0.72,0,0,1-.57.71v0a0.7,0.7,0,0,1,.49.71,2.39,2.39,0,0,0,.19.72h-0.49a2.13,2.13,0,0,1-.2-0.74,0.54,0.54,0,0,0-.63-0.51h-0.33V1164Zm0-1.61h0.34a0.58,0.58,0,0,0,.71-0.5,0.57,0.57,0,0,0-.71-0.51,2.26,2.26,0,0,0-.34,0v1Z" transform="translate(-144 -960.2)"/><polygon class="cls-1" points="582.34 211.12 582.34 211.4 581.52 211.4 581.52 213.54 581.18 213.54 581.18 211.4 580.36 211.4 580.36 211.12 582.34 211.12"/><polygon class="cls-1" points="582.51 211.12 583.04 211.12 583.76 213.1 583.78 213.1 584.49 211.12 585 211.12 585 213.54 584.65 213.54 584.65 211.55 584.64 211.55 583.9 213.54 583.58 213.54 582.87 211.55 582.85 211.55 582.85 213.54 582.51 213.54 582.51 211.12"/><rect class="cls-1" x="508.98" y="195.12" width="4.65" height="18.42"/><path class="cls-1" d="M695.1,1160.6a8.06,8.06,0,0,0-3.91-1,4.92,4.92,0,1,0,0,9.83,8.16,8.16,0,0,0,3.91-1v4.95a14.93,14.93,0,0,1-4.24.66c-5.23,0-9.81-3.61-9.81-9.54,0-5.5,4.15-9.53,9.81-9.53a14.09,14.09,0,0,1,4.24.66v4.95Z" transform="translate(-144 -960.2)"/><path class="cls-1" d="M646.59,1160.6a8,8,0,0,0-3.91-1,4.92,4.92,0,1,0,0,9.83,8.19,8.19,0,0,0,3.91-1v4.95a14.93,14.93,0,0,1-4.25.66c-5.22,0-9.8-3.61-9.8-9.54,0-5.5,4.15-9.53,9.8-9.53a14.23,14.23,0,0,1,4.25.66v4.95Z" transform="translate(-144 -960.2)"/><path class="cls-1" d="M719.46,1164.53a9.73,9.73,0,1,1-9.73-9.53A9.46,9.46,0,0,1,719.46,1164.53Zm-9.73-4.84a4.85,4.85,0,1,0,4.8,4.84A4.76,4.76,0,0,0,709.73,1159.69Z" transform="translate(-144 -960.2)"/><path class="cls-1" d="M675.26,1159.51a16.16,16.16,0,0,0-3.63-.56c-1.87,0-2.88.62-2.88,1.51,0,1.12,1.37,1.51,2.13,1.76l1.29,0.41c3,1,4.39,3,4.39,5.27,0,4.63-4.07,6.18-7.63,6.18a27.55,27.55,0,0,1-5-.5v-4.24a17.65,17.65,0,0,0,4.4.68c2.31,0,3.37-.67,3.37-1.72s-0.92-1.47-2.08-1.83l-1-.32c-2.59-.82-4.75-2.33-4.75-5.38,0-3.45,2.58-5.76,6.87-5.76a19.94,19.94,0,0,1,4.53.59v3.93Z" transform="translate(-144 -960.2)"/><path class="cls-1" d="M627.61,1135.53a2.31,2.31,0,0,0-4.61,0v4.84a2.31,2.31,0,1,0,4.61,0v-4.84Z" transform="translate(-144 -960.2)"/><path class="cls-1" d="M640.29,1129.18a2.31,2.31,0,0,0-4.61,0v11.18a2.31,2.31,0,1,0,4.61,0v-11.18Z" transform="translate(-144 -960.2)"/><path class="cls-1" d="M653,1120.5a2.31,2.31,0,0,0-4.62,0V1145a2.31,2.31,0,0,0,4.62,0V1120.5Z" transform="translate(-144 -960.2)"/><path class="cls-1" d="M665.64,1129.18a2.31,2.31,0,0,0-4.61,0v11.18a2.31,2.31,0,1,0,4.61,0v-11.18Z" transform="translate(-144 -960.2)"/><path class="cls-1" d="M678.3,1135.53a2.3,2.3,0,0,0-4.6,0v4.84a2.3,2.3,0,1,0,4.6,0v-4.84Z" transform="translate(-144 -960.2)"/><path class="cls-1" d="M691,1129.18a2.3,2.3,0,0,0-4.6,0v11.18a2.3,2.3,0,1,0,4.6,0v-11.18Z" transform="translate(-144 -960.2)"/><path class="cls-1" d="M703.66,1120.5a2.3,2.3,0,0,0-4.6,0V1145a2.3,2.3,0,1,0,4.6,0V1120.5Z" transform="translate(-144 -960.2)"/><path class="cls-1" d="M716.34,1129.18a2.31,2.31,0,0,0-4.62,0v11.18a2.31,2.31,0,0,0,4.62,0v-11.18Z" transform="translate(-144 -960.2)"/><path class="cls-1" d="M729,1135.53a2.3,2.3,0,0,0-4.6,0v4.84a2.3,2.3,0,1,0,4.6,0v-4.84Z" transform="translate(-144 -960.2)"/><path class="cls-1" d="M889.23,1174.28a8.21,8.21,0,0,0-2.59-.51c-1,0-1.76.26-1.76,1.16,0,2.12,5.47.82,5.47,5.19,0,3-2.4,4.1-5.1,4.1a12.67,12.67,0,0,1-3.62-.54l0.21-2.59a12.28,12.28,0,0,0,3.28.6c1.05,0,1.91-.32,1.91-1.24,0-2.27-5.47-.81-5.47-5.17,0-2.72,2.29-3.84,4.82-3.84a10.47,10.47,0,0,1,3.43.54Zm-10,0a8.34,8.34,0,0,0-2.59-.51c-1,0-1.78.26-1.78,1.16,0,2.12,5.49.82,5.49,5.19,0,3-2.42,4.1-5.1,4.1a13.2,13.2,0,0,1-3.67-.54l0.24-2.59a12.53,12.53,0,0,0,3.3.6c1,0,1.89-.32,1.89-1.24,0-2.27-5.49-.81-5.49-5.17,0-2.72,2.32-3.84,4.82-3.84a10.87,10.87,0,0,1,3.47.54Zm50.52-2.89c2.38,0,3.77,1.29,3.77,4.1v8.45h-3.17v-7.8c0-1.27-.36-2.1-1.72-2.1s-2.53,1.18-2.53,3.3v6.6H923v-7.8c0-1.18-.39-2.1-1.74-2.1s-2.51,1.31-2.51,3.43v6.48h-3.22v-12.29c2.1-.26,2.89.6,3,2a4.24,4.24,0,0,1,3.84-2.23,3.16,3.16,0,0,1,3.41,2.38,4.21,4.21,0,0,1,4-2.38h0Zm-64.65.26a87.89,87.89,0,0,1-3.56,12.29h-3.35l-2.36-8.19h0l-2.36,8.19h-3.32a81.06,81.06,0,0,1-3.56-12.29h3.15l2.08,8.45h0l2.49-8.45h3.15l2.42,8.38h0l2.1-8.38h3.07Zm-20.43,2.64a8.21,8.21,0,0,0-2.59-.51c-1,0-1.74.26-1.74,1.16,0,2.12,5.45.82,5.45,5.19,0,3-2.4,4.1-5.1,4.1a12.67,12.67,0,0,1-3.62-.54l0.19-2.59a12.53,12.53,0,0,0,3.3.6c1.05,0,1.91-.32,1.91-1.24,0-2.27-5.47-.81-5.47-5.17,0-2.72,2.29-3.84,4.82-3.84a10.57,10.57,0,0,1,3.43.54Zm63,9.91c-3.5,0-5.94-1.91-5.94-6.2,0-3.84,2.57-6.6,6.3-6.6,3.47,0,5.73,2,5.73,6.13,0,4-2.44,6.67-6.09,6.67h0Zm0.13-10.1c-1.41,0-2.77,1.05-2.77,3.75,0,2.34.88,3.65,2.72,3.65,1.57,0,2.77-1.27,2.77-3.75s-0.86-3.65-2.72-3.65h0Zm-41.3,9.84h3.15v-12.29c-1.48-.15-3.15.26-3.15,2.57v9.71Zm1.74-13.83a2,2,0,0,0,2-2,2,2,0,0,0-4,0,2,2,0,0,0,2,2h0Zm29.42,14c-3.64,0-6-1.82-6-6.18,0-3.69,2-6.54,6.52-6.54a9.1,9.1,0,0,1,3,.51l-0.69,2.57a6.56,6.56,0,0,0-2.23-.45c-2.29,0-3.24,1.5-3.24,3.75s0.86,3.65,3.11,3.65a6.28,6.28,0,0,0,2.49-.54l0.36,2.53A7.1,7.1,0,0,1,897.7,1184.15Z" transform="translate(-144 -960.2)"/><path class="cls-1" d="M898.62,1138.07l-0.67-.77h-3.48l0.09-.28h-12.8v1.32h12.32l0-.07,0.08-.21h4.43Z" transform="translate(-144 -960.2)"/><path class="cls-1" d="M900.53,1140.77l-0.32-.53-0.16-.24H893.4l0.12-.28H881.76V1141h11.17l0.13-.28h7.47Z" transform="translate(-144 -960.2)"/><path class="cls-1" d="M901.71,1143.48c-0.07-.26-0.16-0.51-0.26-0.77h-9.34l0.15-.28H881.76v0.28h0v1h9.78v0l0.13-.25h10Z" transform="translate(-144 -960.2)"/><path class="cls-1" d="M902.1,1146.18q0-.39,0-0.77H890.62l0.16-.28h-9v1.32H890l0,0,0.15-.25h12Z" transform="translate(-144 -960.2)"/><path class="cls-1" d="M881,1113a6.31,6.31,0,0,0-1.79.37,5.23,5.23,0,0,0-.81.37h3.31v-0.69A2.55,2.55,0,0,0,881,1113Z" transform="translate(-144 -960.2)"/><path class="cls-1" d="M876.92,1115.68a2.87,2.87,0,0,0,0,.77h4.89v-0.77h-4.84Z" transform="translate(-144 -960.2)"/><path class="cls-1" d="M891.83,1159.7q0.79-.37,1.53-0.77h-11.6v0.77h10.07Z" transform="translate(-144 -960.2)"/><path class="cls-1" d="M881.76,1161.63v0.74a29.24,29.24,0,0,0,4.49-.74h-4.49Z" transform="translate(-144 -960.2)"/><path class="cls-1" d="M888.16,1149.16l0.2-.28h13.45c0.06-.25.11-0.51,0.15-0.77h-13L889,1148l0.12-.19h-7.32v0.62h0l-0.14,0-0.2-.06h0c-1.86-.6-2.2-2.26-2.56-4a9.35,9.35,0,0,0-.8-2.63,8,8,0,0,0-2.59-2.39c-1.47-1-3-2.07-3-4,0-2.06,1.4-2.59,2.88-3.14a5.41,5.41,0,0,0,2.55-1.53,7.58,7.58,0,0,0,1-2.07c0.5-1.37,1-2.66,2.89-2.91a2,2,0,0,0-.12-0.53c0-.1-0.08-0.21-0.12-0.31h1.94l0.11,0.09,0.55,0.48,0.72,0.62,0.22,0.19h-3.31v1.32h4.91l0.47,0.38,0.22,0.18,1,0.83h-6.63v1.32H890l0.2,0.16,1.5,1.22h-10v0.28h0v1h11.58l0.17,0.14c0.57,0.49,1.09.95,1.42,1.24H881.76v1.32H895l0.08-.28h1l-0.82-.76a22.57,22.57,0,0,0,.42-2.57,17.36,17.36,0,0,0,0-3.2,13.07,13.07,0,0,0-1.16-4.48,11.51,11.51,0,0,0-2.29-3.28l-0.29-.28a12.45,12.45,0,0,0-1.72-1.34,12.31,12.31,0,0,0-1.9-1,10.49,10.49,0,0,0-3.48-.76,5.47,5.47,0,0,0-3.1.69h-4.29l-0.15-.3-0.13-.3-1.56,1.16-0.49.36c-1.06.78-2.16,1.58-3.21,2.4-0.88.69-1.64,1.34-2.32,2a22.2,22.2,0,0,0-2.06,2.13,8.71,8.71,0,0,0-2.27,4.94,5.87,5.87,0,0,0,0,.91,7.45,7.45,0,0,0,.13.95,7.69,7.69,0,0,0,1.42,3.1,17.88,17.88,0,0,0,2.66,2.73l0.5,0.43,0.55,0.47c0.94,0.81,1.92,1.65,2.83,2.52q0.46,0.44.87,0.88a4.09,4.09,0,0,0-.67.76h1.36a18.17,18.17,0,0,1,1.47,1.93h-3.78a6.44,6.44,0,0,0-.2.76h4.46q0.26,0.45.48,0.91c0.15,0.33.29,0.68,0.41,1h-5.41a6.45,6.45,0,0,0,.15.77H878c0.19,0.64.35,1.29,0.5,1.93h-5.21l0.06,0.12c0.13,0.22.27,0.44,0.42,0.65h4.92c0.13,0.55.27,1.1,0.43,1.64l0.09,0.29h-3.76l0.09,0.08c0.25,0.23.52,0.46,0.8,0.69h3.12c0.07,0.19.15,0.4,0.21,0.57s0.37,0.89.59,1.36h-0.88c0.32,0.17.75,0.37,1.18,0.57a3.25,3.25,0,0,0,.68.92,1.28,1.28,0,0,0,.5.22v-0.68h0l0.14-.14L882,1157h14.3l0.7-.57,0.23-.2H882.68l0.23-.28h-1.16v-1.38h2.32l0.22-.28h14.83q0.31-.38.59-0.77H884.92l0.22-.28h-3.37v-1.38h4.44l0.21-.28h14.46c0.12-.25.24-0.51,0.34-0.77H887l0.19-.28h-5.42v-1.38h6.4Zm-7.33-25.65-0.46-.75c-0.18-.29-0.38-0.58-0.52-0.79l-0.07-.11h2v1.65h-0.93Zm0.93-4.36v1.93h-2.51l-0.2-.3-0.08-.11-0.79-1.15-0.26-.37h3.84Z" transform="translate(-144 -960.2)"/><path class="cls-1" d="M1113.09,1159.14l1.52-3.56q3.7-8.7,7.4-17.41a0.46,0.46,0,0,1,.49-0.34c1.31,0,2.61,0,3.92,0a0.41,0.41,0,0,1,.45.27q4.73,11.14,9.47,22.28c0,0.06,0,.12.06,0.17a0.28,0.28,0,0,1-.28.07c-1.52,0-3,0-4.55,0a0.42,0.42,0,0,1-.46-0.31c-0.59-1.48-1.2-2.94-1.79-4.42a0.47,0.47,0,0,0-.51-0.36q-4.42,0-8.84,0a0.47,0.47,0,0,0-.51.36c-0.59,1.48-1.2,2.94-1.79,4.42a0.41,0.41,0,0,1-.46.31h-8.69a0.53,0.53,0,0,1-.5-0.29c-1.47-2.21-3-4.42-4.43-6.63a0.62,0.62,0,0,0-.6-0.33q-1.55,0-3.1,0c-0.33,0-.44.08-0.44,0.43,0,2.14,0,4.28,0,6.42,0,0.34-.1.41-0.42,0.41-1.41,0-2.81,0-4.22,0-0.27,0-.36-0.06-0.36-0.35q0-11,0-21.94a0.27,0.27,0,0,1,.33-0.34c3.61,0,7.21,0,10.82,0a8.86,8.86,0,0,1,4.15,1.06,6.55,6.55,0,0,1,3.54,5.6,8.21,8.21,0,0,1-.63,4.16,6.89,6.89,0,0,1-3.81,3.54c-0.33.14-.34,0.23-0.14,0.51,1.36,2,2.7,3.94,4,5.9A0.74,0.74,0,0,0,1113.09,1159.14Zm-13.64-13.41c0,1,0,1.94,0,2.91a0.29,0.29,0,0,0,.35.36c1.61,0,3.23,0,4.84,0a4.72,4.72,0,0,0,1.43-.22,2.88,2.88,0,0,0,2.15-2.25,3.12,3.12,0,0,0-.86-3.11,3.94,3.94,0,0,0-2.69-.91c-1.63,0-3.25,0-4.88,0a0.28,0.28,0,0,0-.34.34C1099.46,1143.79,1099.45,1144.76,1099.45,1145.73Zm25-1.85a1.1,1.1,0,0,0-.11.15c-0.94,2.28-1.87,4.57-2.81,6.85-0.12.28,0,.28,0.22,0.28h5.68Z" transform="translate(-144 -960.2)"/><path class="cls-1" d="M1083.66,1137.68a13,13,0,0,1,7.87,2.56c0.41,0.3.41,0.3,0.13,0.7-0.71,1-1.43,2.06-2.13,3.1a0.27,0.27,0,0,1-.46.09,11.6,11.6,0,0,0-4.21-1.91,5.15,5.15,0,0,0-3.11.17,1.81,1.81,0,0,0-1.19,1.95,1.68,1.68,0,0,0,.88,1.38,9.79,9.79,0,0,0,2.46.95c1.28,0.37,2.58.65,3.82,1.12a14.32,14.32,0,0,1,1.63.72,5.57,5.57,0,0,1,3.25,5.17,6.4,6.4,0,0,1-3.37,6.15,7.87,7.87,0,0,1-2.7.92,14.3,14.3,0,0,1-11.51-3.13c-0.28-.23-0.29-0.36-0.05-0.63,0.81-.93,1.59-1.88,2.36-2.84,0.22-.28.36-0.33,0.66-0.08a10.44,10.44,0,0,0,4.84,2.34,6.37,6.37,0,0,0,3.53-.21,1.93,1.93,0,0,0,1.23-2.37,1.8,1.8,0,0,0-.94-1.11,11.69,11.69,0,0,0-2.89-1.07,27.85,27.85,0,0,1-4.67-1.5,5.37,5.37,0,0,1-3.32-3.9,6.69,6.69,0,0,1,1.61-6.3,7.64,7.64,0,0,1,4.52-2.17A10.77,10.77,0,0,1,1083.66,1137.68Z" transform="translate(-144 -960.2)"/><path class="cls-1" d="M1065.79,1161c-4,0-6.79-1-9.08-3.23a11.14,11.14,0,0,1-3.35-6.78,11.8,11.8,0,0,1,1.72-8.1,11.09,11.09,0,0,1,8.36-5.17,13.24,13.24,0,0,1,7.08,1,11.8,11.8,0,0,1,3.27,2.25,0.21,0.21,0,0,1,0,.36q-1.42,1.63-2.83,3.27c-0.16.19-.26,0.14-0.41,0a10.18,10.18,0,0,0-2.8-1.82,6.6,6.6,0,0,0-9.23,5.32,7.57,7.57,0,0,0,1.55,6,6.23,6.23,0,0,0,5.44,2.32,8,8,0,0,0,5-2.23l0.31-.27a0.17,0.17,0,0,1,.3,0q1.42,1.45,2.86,2.89c0.2,0.19.07,0.28-.05,0.42A11,11,0,0,1,1065.79,1161Z" transform="translate(-144 -960.2)"/><path class="cls-1" d="M1142.45,1154.95h5.93a0.42,0.42,0,0,1,.47.3q1,2.51,2.12,5c0.12,0.27.12,0.37-.23,0.37h-11.86a0.4,0.4,0,0,1-.44-0.29q-1.06-2.54-2.16-5.07c-0.14-.31,0-0.34.24-0.34h5.93v0Z" transform="translate(-144 -960.2)"/><path class="cls-1" d="M1143.79,1143.44h-12.14a0.49,0.49,0,0,1-.54-0.36c-0.68-1.63-1.38-3.24-2.07-4.86-0.16-.37-0.16-0.37.26-0.37h11.83a0.4,0.4,0,0,1,.45.27c0.71,1.7,1.43,3.38,2.15,5.08C1143.74,1143.27,1143.76,1143.34,1143.79,1143.44Z" transform="translate(-144 -960.2)"/><path class="cls-1" d="M1147.4,1151.95h-12.13a0.49,0.49,0,0,1-.54-0.36c-0.67-1.6-1.36-3.2-2-4.79-0.16-.37-0.16-0.38.26-0.38l11.85,0a0.33,0.33,0,0,1,.38.2c0.72,1.72,1.45,3.43,2.17,5.14A1.57,1.57,0,0,1,1147.4,1151.95Z" transform="translate(-144 -960.2)"/><path class="cls-1" d="M1161,1163.62h-6.12a0.38,0.38,0,0,1-.45-0.22c-0.74-1.78-1.49-3.54-2.23-5.32a0.81,0.81,0,0,1,0-.14h6.11a0.44,0.44,0,0,1,.49.33c0.69,1.67,1.4,3.34,2.1,5Z" transform="translate(-144 -960.2)"/><path class="cls-1" d="M1148.15,1140.85h2.94a0.38,0.38,0,0,1,.42.27q1,2.5,2.06,5c0.11,0.27.06,0.33-.22,0.33h-5.85a0.38,0.38,0,0,1-.41-0.27q-1.05-2.5-2.13-5c-0.11-.26-0.06-0.31.21-0.31h3Z" transform="translate(-144 -960.2)"/><path class="cls-1" d="M1151.79,1149.38c1,0,1.92,0,2.87,0a0.4,0.4,0,0,1,.45.29q1,2.46,2.08,4.9c0.14,0.31.06,0.37-.25,0.36q-2.87,0-5.74,0a0.45,0.45,0,0,1-.49-0.33q-1-2.44-2.07-4.86c-0.14-.32,0-0.36.26-0.36C1149.85,1149.39,1150.82,1149.38,1151.79,1149.38Z" transform="translate(-144 -960.2)"/></g></svg>