<svg id="Layer_1" data-name="Layer 1" xmlns="http://www.w3.org/2000/svg" width="183.11" height="169.48" viewBox="0 0 183.11 169.48"><defs><style>.cls-1{fill:#aee0ee;}.cls-2{fill:#fff;}.cls-3{fill:none;stroke:#69a5d1;stroke-linecap:round;stroke-linejoin:round;stroke-width:2px;}</style></defs><title>oss_spruce_icon</title><g id="Panel_OPEN_SOURCE" data-name="Panel OPEN SOURCE"><g id="layout2"><path class="cls-1" d="M237,4566.57l-0.93-5a3.6,3.6,0,0,0-3.54-2.95H192.32a3.6,3.6,0,0,0-3.54,2.95l-0.93,5a3.6,3.6,0,0,1-3.54,2.95H173.53a3.6,3.6,0,0,0-3.6,3.6v134.57a3.6,3.6,0,0,0,3.6,3.6h175.9a3.6,3.6,0,0,0,3.6-3.6V4573.12a3.6,3.6,0,0,0-3.6-3.6H240.51A3.6,3.6,0,0,1,237,4566.57Z" transform="translate(-169.93 -4543.96)"/><rect class="cls-2" x="117.55" y="97.4" width="55.62" height="50.79" rx="8.93" ry="8.93"/><rect class="cls-2" x="22.59" y="67.78" width="45.09" height="80.42" rx="10.12" ry="10.12"/><circle class="cls-3" cx="97.94" cy="84.74" r="83.74"/><path class="cls-3" d="M311.83,4654.53a36,36,0,0,1-35-27.86,50.09,50.09,0,0,1-6.69,16.3,48.35,48.35,0,0,0,41.71,24H318v-12.39h-6.2Z" transform="translate(-169.93 -4543.96)"/><path class="cls-3" d="M284.59,4595.37L266,4563.27l-18.54,32.1h12.34v23.15a36,36,0,0,1-35.94,35.94h-6.2v12.39h6.2a48.39,48.39,0,0,0,48.33-48.33v-23.15h12.34Z" transform="translate(-169.93 -4543.96)"/></g></g></svg>